<svg width="981" height="699" viewBox="0 0 981 699" fill="none" xmlns="http://www.w3.org/2000/svg">
<path d="M2.72803 4.09204V684.327C2.72803 684.463 2.72803 690.329 2.72803 697.967H981V4.09204H2.72803Z" fill="#E6E7E8"/>
<g opacity="0.71">
<g opacity="0.71">
<mask id="mask0_30_128" style="mask-type:luminance" maskUnits="userSpaceOnUse" x="0" y="0" width="979" height="699">
<path d="M978.272 0H0V698.239H978.272V0Z" fill="white"/>
</mask>
<g mask="url(#mask0_30_128)">
<path d="M978.272 565.793V574.114L977.454 565.93L978.272 565.793Z" fill="white"/>
</g>
<mask id="mask1_30_128" style="mask-type:luminance" maskUnits="userSpaceOnUse" x="0" y="0" width="979" height="699">
<path d="M978.272 0H0V698.239H978.272V0Z" fill="white"/>
</mask>
<g mask="url(#mask1_30_128)">
<path d="M126.308 429.392V498.548H110.212V470.994L112.395 433.62L98.8911 427.482L92.6167 492.273V498.684H73.7933L46.9222 482.18L-0.136353 473.45V476.587L46.3765 485.181L73.2477 501.685H108.303V526.101H110.212V501.685H125.899L118.124 537.013L113.077 562.383L123.171 602.213L124.944 600.985L115.259 562.248L120.033 538.104L128.081 501.685H128.354V429.392H126.308ZM108.303 470.722V498.411H94.5263V492.273L100.528 431.302L110.349 435.803L108.303 470.722Z" fill="white"/>
</g>
<mask id="mask2_30_128" style="mask-type:luminance" maskUnits="userSpaceOnUse" x="0" y="0" width="979" height="699">
<path d="M978.272 0H0V698.239H978.272V0Z" fill="white"/>
</mask>
<g mask="url(#mask2_30_128)">
<path d="M707.788 694.693H715.699V693.739L707.788 694.693ZM896.295 130.946V158.226L872.833 175.413C872.015 176.231 853.055 196.828 850.464 200.101C848.145 202.966 836.96 215.105 835.46 216.742L811.589 235.702L790.72 249.478L792.766 258.344L813.772 244.568L838.46 224.926C839.006 224.38 851.282 210.877 853.874 207.739C855.92 205.284 870.106 189.735 875.698 183.733L902.023 164.5V132.719L908.161 104.484L910.617 80.477H978.272V48.5591H888.656L841.87 6.01532e-05H805.724L812.544 7.22908L803.132 25.9164L743.116 84.8421L719.791 110.349L702.877 74.2024L696.193 24.6889H670.277L651.317 28.3713L630.857 24.5523L611.352 31.7814L607.532 -0.136475H602.213L614.489 103.256H598.53V38.6014L576.569 33.555V86.2061H556.109L551.199 73.93L521.327 68.3374H485.044L452.99 84.1601L408.25 100.801C406.34 84.9781 403.203 69.7013 398.838 55.2427L385.88 6.01532e-05H365.42C372.24 28.3716 385.062 81.9771 386.016 86.342L311.95 102.438L238.839 125.353L224.108 133.265H223.971V6.01532e-05H218.242V133.265H171.73L159.453 140.903L86.4786 144.586L85.933 74.8844H129.309L187.143 30.8269L218.242 0.136595H207.058L184.688 22.2332L128.081 65.3363H85.3874L79.7949 23.3249L68.8828 0.136595H61.6535L74.6117 27.5534L80.4769 70.6558L81.0226 144.995L38.6016 147.177L36.4192 0.27313H30.2812L33.0092 188.098L27.0075 348.233H15.6862L1.57058e-05 340.049V350.143L14.8678 357.918H57.4251L81.1589 370.467L77.8853 434.576L83.6141 435.394L86.8878 373.058L96.9816 377.969V397.202H218.379V561.566L219.743 574.933L175.958 606.987L79.2494 642.315V578.616L72.5657 533.057H36.2829L1.57058e-05 522.691V532.375L35.4644 542.469H67.928L73.384 579.025V600.849L36.8284 609.988V593.62L-0.136353 584.208V587.482L34.9189 596.484V672.596H-0.136353V681.326C-0.136353 681.599 -0.136353 681.872 -0.136353 682.144H36.4192L73.7933 655.001L76.6577 694.966H82.3866L79.3857 651.863L177.186 616.126L220.425 584.617L224.926 629.493L221.38 631.266C220.971 631.403 220.698 631.675 220.425 631.948L188.371 661.002C186.597 662.639 185.37 665.776 185.37 669.323V691.283L183.187 694.693L166.41 694.011L165.592 695.103H193.417L190.826 694.966C191.099 693.875 191.235 692.647 191.235 691.419V669.595L223.289 640.542L270.212 616.262H299.674L316.724 633.176C318.088 634.54 319.862 634.813 321.362 633.994L377.287 603.44C379.606 602.213 381.242 598.53 381.242 594.574L381.379 520.099L399.793 488.181H414.115L415.343 507.959L389.017 541.923L383.425 604.804L342.368 639.178L320.544 654.591L275.122 675.733L246.478 695.375H688.146L685.827 670.141L652.681 636.313L674.369 616.944L689.646 579.843L692.92 581.48H709.697L720.337 574.66V515.325L722.792 484.635V425.164H648.453L614.353 440.441L608.896 407.295L642.315 390.517C643.679 389.835 644.907 388.199 645.589 386.153L656.364 353.826H661.548V377.832H676.279L697.421 394.201L748.026 399.793L761.53 416.161L801.223 422.845V440.168H803.132V419.98L762.212 413.024L750.345 398.702L751.163 398.838L754.983 353.826H766.577C769.714 353.826 772.169 349.597 772.169 344.414V336.23L790.583 321.908H818.818C819.364 321.908 819.91 321.772 820.319 321.499C832.322 315.634 844.871 293.264 840.779 249.206L852.782 236.111C861.921 226.154 873.379 224.244 883.473 230.792C885.382 232.019 887.428 231.474 889.065 229.428L909.116 202.965L914.3 215.106L931.486 301.721L942.944 349.597L950.31 378.378L902.569 410.842V321.362L889.747 296.673H877.335L857.829 319.043L840.916 330.092H827.003L802.178 347.687H779.808V356.417H803.132L827.957 338.821H841.734L859.875 326.955L878.835 305.403H887.292L897.249 324.636V414.388L908.298 494.456L870.105 502.64H798.495L759.347 521.327V602.349L752.527 666.458L754.437 695.375H759.62L757.711 666.731L764.531 603.577V569.068L820.046 574.933L815.545 684.599L812.544 695.375H818.273L820.592 686.782L825.639 566.749L764.667 560.337V527.738L799.45 511.233H849.918V666.458H855.101V511.233H870.651L885.928 507.959V678.461H887.838V641.769L927.121 628.129L936.397 695.239L936.942 698.785L946.081 695.239L965.996 687.6L967.087 695.239H970.633C971.179 695.239 971.861 695.102 972.407 694.966L969.815 677.234L940.761 688.419L932.168 626.356L978.818 610.124V593.21L966.541 526.374L954.674 487.227L978.818 478.361V469.494L952.492 479.178L935.169 409.478L930.395 412.751L947.445 481.089L915.254 492.955L914.027 493.228L903.115 414.252L951.537 381.242L956.038 398.975L972.407 422.026L978.954 456.536V446.033L974.044 420.253L957.675 397.065L953.447 380.424L974.18 374.286L975.68 350.143L978.954 347.824V344.414L973.907 347.961L972.407 371.694L952.628 377.559L945.126 348.506L933.669 300.765L919.756 230.246L938.715 214.969L945.399 229.564L937.897 254.389L949.355 294.764H962.858L968.451 324.909L979.09 322.181V318.907L969.815 321.362L964.359 291.626H950.719L940.216 254.389L947.718 229.155L940.216 212.65L950.992 169.001L955.902 154.134L979.09 167.501V164.091L955.084 150.315L949.218 167.637L938.306 211.696L919.21 227.109L916.618 214.014L911.162 201.056L916.209 194.372C917.3 192.872 917.982 190.962 918.255 188.643L922.211 150.724L934.214 121.806L978.818 97.3906V87.2971L932.441 112.668C931.35 113.35 930.259 114.578 929.577 116.214L917.437 145.131C917.028 146.222 916.618 147.587 916.482 148.951L912.526 186.87L886.065 222.062C874.198 214.423 860.83 216.605 850.054 228.2L838.051 241.294C836.141 243.34 835.187 247.023 835.596 250.706C840.097 299.674 822.774 310.723 819.228 312.36H790.993C790.174 312.36 789.356 312.633 788.674 313.178L770.123 327.5C768.077 329.001 766.85 332.411 766.85 336.093L766.986 344.277H755.392L751.709 300.902V249.342L740.66 199.146L700.286 208.149L670.686 199.555L652.272 209.513V211.422L598.939 212.923V180.05L593.347 126.58L597.848 112.668H631.539V104.074H620.354L612.989 42.0115L631.676 35.0555L651.863 38.738L670.959 34.919H692.101L698.103 78.9764L719.109 123.717L737.796 103.256L749.117 132.719L770.669 173.776L799.995 160.135L822.365 148.541L849.1 143.222L866.968 137.084L865.741 127.672L848.281 133.81L821.41 139.13L798.358 150.997L772.578 163L753.755 127.262L742.434 98.0726L807.224 33.9639L817.864 12.9582L883.609 81.2955H905.161L903.115 102.438L896.295 130.946ZM80.7497 154.27L81.0226 186.325H38.8745L38.4653 156.453L80.7497 154.27ZM38.7381 189.598H81.0226L81.7046 279.487L74.4753 278.668C57.6979 274.985 39.2837 270.212 35.7372 268.029L38.7381 189.598ZM35.7372 268.438C35.8736 268.711 36.01 268.984 36.1464 269.393L35.6009 269.802L35.7372 268.438ZM81.7046 360.373L58.2435 347.961H32.7364L35.328 277.85C40.1021 280.169 50.605 283.306 73.9297 288.353L81.8409 289.308L82.2501 348.37L81.7046 360.373ZM86.4786 153.997L110.485 152.77V186.87L86.7514 186.325L86.4786 153.997ZM218.242 387.38H102.574V370.467L87.1606 363.101L87.8426 348.643L87.4335 289.853L106.939 292.036L106.393 294.218V325.045H112.122V296.265L119.624 269.12L151.542 280.987L150.724 319.043L185.779 335.139L218.242 327.364V387.38ZM120.443 266.256L125.626 247.432L168.047 256.298L166.41 323.135L152.633 316.861L153.452 278.668L120.443 266.256ZM168.32 323.954L169.956 256.572L184.824 259.708V331.592L168.32 323.954ZM218.242 324.227L186.734 331.865V260.118L218.242 266.665V324.227ZM218.242 256.98L122.079 237.066L109.53 282.76L87.297 280.305L86.615 189.735L110.349 190.28V214.151H112.258V190.28L167.365 191.235L218.106 178.823V256.98H218.242ZM218.242 175.276L167.365 187.825L112.395 186.87V152.77L160.545 150.315L172.821 142.813H218.379V175.276H218.242ZM73.384 644.906L36.8284 671.232V613.125L73.384 603.986V644.906ZM714.471 513.825V567.567L708.47 571.386H693.602L692.783 570.977L699.058 554.472L648.999 552.29L639.45 497.184H715.835L714.471 513.825ZM649.135 434.166H717.063V483.135L716.654 487.772H637.95L637.132 483.271L617.49 459.81L615.717 449.17L649.135 434.166ZM948.946 488.727L961.222 528.829L974.589 602.076L930.531 617.49L914.572 501.412L948.946 488.727ZM925.485 619.263L887.429 632.494V507.141L909.389 502.503L925.485 619.263ZM223.971 142.676H225.063L240.203 134.629L312.905 111.849L387.79 95.4812C389.29 104.211 390.381 113.077 390.927 122.079L403.067 315.906L378.241 310.177L323.272 317.816L284.124 343.732C281.669 344.278 228.473 355.326 223.835 356.827V142.676H223.971ZM356.417 322.863V390.517H329.273V326.682L356.417 322.863ZM327.364 326.955V390.517H315.906L301.175 395.701L300.493 343.459L324.772 327.364L327.364 326.955ZM223.971 560.747V459.128L252.752 449.17L260.254 484.362L278.668 503.595L286.989 555.154L260.254 590.619L252.752 578.888L225.199 573.978L223.971 560.747ZM230.519 626.22L226.29 583.799L250.433 588.027L263.801 608.896L230.519 626.22ZM399.657 478.088C398.156 478.088 396.656 479.179 395.564 480.952L377.014 512.87C375.923 514.643 375.377 516.962 375.377 519.417V593.756L319.452 624.31L302.402 607.532C301.584 606.714 300.493 606.168 299.538 606.168H270.348L261.891 592.801L289.444 556.382L280.578 501.549L262.027 482.18L254.116 445.351L223.971 455.718V366.375C232.019 363.92 264.619 357.099 285.352 353.007L285.761 352.871L298.583 344.414L299.265 396.11L254.116 411.796L244.022 362.146L242.249 363.237L252.889 415.616L316.042 393.519H327.5V430.756H357.509V427.619H329.41V393.655H358.463V322.59L378.241 319.862L403.885 325.863L413.433 478.224H399.657V478.088ZM409.341 110.212L438.258 99.4367V133.265L462.128 136.538L462.947 242.113H464.856L464.038 136.811L483.134 139.403L485.999 280.305H453.944L419.571 270.212C419.435 270.348 409.614 113.077 409.341 110.212ZM420.117 279.214L453.262 288.898H487.09L520.645 282.488H593.21V324.499L602.349 399.93L555.563 423.39C554.881 423.663 554.336 424.209 553.79 424.891L521.327 466.084L481.634 477.951C481.225 478.087 480.815 478.36 480.406 478.633L451.353 499.503L433.211 485.044L420.117 279.214ZM529.92 274.031V198.737L561.429 202.011V274.031H529.92ZM563.338 274.031V202.147L593.21 205.284V274.031H563.338ZM435.667 502.231L434.166 502.503L433.757 496.365L448.761 508.369L448.898 508.505L435.667 502.231ZM610.806 451.762L610.533 451.489L579.57 465.538L562.111 480.134L543.287 514.916L510.278 521.599L473.586 520.099L450.262 509.323C451.216 509.46 452.308 509.323 453.126 508.641L482.18 487.772L521.872 475.905C522.691 475.632 523.509 475.087 524.328 474.132L556.928 432.938L603.577 409.614L610.806 451.762ZM745.435 395.701L697.83 390.517L676.688 374.149L663.184 374.013V353.28H697.148L722.519 368.284C724.019 369.103 725.52 368.967 726.884 367.875L744.071 353.28H748.981L745.435 395.701ZM657.319 321.089V215.923L670.414 208.831L699.467 217.287L736.159 209.24L745.298 250.57V300.765L748.981 343.869H744.071C743.252 343.869 742.297 344.277 741.479 344.959L724.292 359.555L698.921 344.551C698.376 344.141 697.694 344.005 697.012 344.005H655.955C653.909 344.005 651.999 345.915 651.045 348.779L640.269 381.106L606.987 397.747L598.666 329.137L657.319 321.089ZM651.59 214.014V312.087L638.223 313.86L631.948 214.424L651.59 214.014ZM618.581 214.969L630.175 214.696L636.45 314.269L618.717 316.725V214.969H618.581ZM598.257 215.515L616.671 214.969V316.861L598.257 319.316V215.515ZM592.801 107.348L587.209 124.399L593.074 179.777V202.011L528.01 195.327V274.031H520.372L487.908 280.169L485.044 136.402L440.168 130.264V98.6181L454.354 93.2986L485.862 77.7489H520.917L548.061 82.7961L553.245 95.6177H582.435V44.3306L592.938 46.7855V107.348H592.801ZM976.908 292.99L978.272 302.538V292.445L976.908 292.99Z" fill="white"/>
</g>
</g>
<path d="M577.524 368.83C589.118 368.83 598.53 378.514 598.53 390.517C598.53 406.749 577.524 430.756 577.524 430.756C577.524 430.756 556.518 406.749 556.518 390.517C556.518 378.514 565.93 368.83 577.524 368.83ZM577.524 398.156C581.616 398.156 585.026 394.746 585.026 390.381C585.026 386.153 581.616 382.606 577.524 382.606C573.432 382.606 570.022 386.017 570.022 390.381C570.022 394.746 573.296 398.156 577.524 398.156ZM577.524 367.466C565.248 367.466 555.154 377.832 555.154 390.517C555.154 407.022 575.614 430.619 576.569 431.574C576.842 431.847 577.251 431.984 577.524 431.984C577.933 431.984 578.206 431.847 578.479 431.574C579.297 430.619 599.894 407.022 599.894 390.517C599.894 377.696 589.8 367.466 577.524 367.466ZM577.524 396.792C574.114 396.792 571.386 393.927 571.386 390.517C571.386 387.107 574.114 384.107 577.524 384.107C580.934 384.107 583.662 386.971 583.662 390.517C583.662 394.064 580.934 396.792 577.524 396.792Z" fill="#2E3192"/>
<path d="M872.015 327.773C872.288 327.773 872.424 327.91 872.424 328.182V345.778C872.424 346.051 872.288 346.187 872.015 346.187H748.162C747.89 346.187 747.753 346.051 747.753 345.778V328.182C747.753 327.91 747.89 327.773 748.162 327.773H872.015ZM872.015 326.409H748.162C747.208 326.409 746.389 327.228 746.389 328.182V345.778C746.389 346.733 747.208 347.551 748.162 347.551H872.015C872.97 347.551 873.788 346.733 873.788 345.778V328.182C873.788 327.228 872.97 326.409 872.015 326.409Z" fill="#2E3192"/>
<path d="M810.089 254.798C821.683 254.798 831.095 264.483 831.095 276.486C831.095 292.718 810.089 316.725 810.089 316.725C810.089 316.725 789.083 292.718 789.083 276.486C789.083 264.483 798.495 254.798 810.089 254.798ZM810.089 284.124C814.181 284.124 817.591 280.714 817.591 276.35C817.591 272.121 814.181 268.574 810.089 268.574C805.997 268.574 802.587 271.985 802.587 276.35C802.587 280.714 805.997 284.124 810.089 284.124ZM810.089 253.298C797.813 253.298 787.719 263.664 787.719 276.35C787.719 292.854 808.179 316.452 809.134 317.407C809.407 317.679 809.816 317.816 810.089 317.816C810.498 317.816 810.771 317.679 811.044 317.407C811.862 316.452 832.459 292.854 832.459 276.35C832.459 263.664 822.501 253.298 810.089 253.298ZM810.089 282.76C806.679 282.76 803.951 279.896 803.951 276.35C803.951 272.803 806.679 269.938 810.089 269.938C813.499 269.938 816.227 272.803 816.227 276.35C816.227 279.896 813.499 282.76 810.089 282.76Z" fill="#2E3192"/>
<path d="M639.45 441.941C639.723 441.941 639.86 442.077 639.86 442.35V459.946C639.86 460.219 639.723 460.355 639.45 460.355H515.598C515.325 460.355 515.189 460.219 515.189 459.946V442.35C515.189 442.077 515.325 441.941 515.598 441.941H639.45ZM639.45 440.44H515.598C514.643 440.44 513.825 441.259 513.825 442.214V459.81C513.825 460.765 514.643 461.583 515.598 461.583H639.45C640.405 461.583 641.224 460.765 641.224 459.81V442.214C641.087 441.259 640.405 440.44 639.45 440.44Z" fill="#2E3192"/>
<path d="M593.756 98.4822C605.35 98.4822 614.762 108.167 614.762 120.17C614.762 136.402 593.756 160.408 593.756 160.408C593.756 160.408 572.75 136.402 572.75 120.17C572.75 108.167 582.162 98.4822 593.756 98.4822ZM593.756 127.944C597.848 127.944 601.258 124.535 601.258 120.17C601.258 115.941 597.848 112.395 593.756 112.395C589.664 112.395 586.254 115.805 586.254 120.17C586.254 124.398 589.664 127.944 593.756 127.944ZM593.756 97.1182C581.48 97.1182 571.386 107.485 571.386 120.17C571.386 136.674 591.846 160.272 592.801 161.227C593.074 161.5 593.483 161.636 593.756 161.636C594.165 161.636 594.438 161.5 594.711 161.227C595.529 160.272 616.126 136.674 616.126 120.17C616.126 107.485 606.168 97.1182 593.756 97.1182ZM593.756 126.444C590.346 126.444 587.618 123.58 587.618 120.033C587.618 116.487 590.346 113.622 593.756 113.622C597.166 113.622 599.894 116.487 599.894 120.033C599.894 123.716 597.166 126.444 593.756 126.444Z" fill="#2E3192"/>
<path d="M655.682 171.593C655.955 171.593 656.091 171.73 656.091 172.002V189.598C656.091 189.871 655.955 190.007 655.682 190.007H531.83C531.557 190.007 531.42 189.871 531.42 189.598V172.002C531.42 171.73 531.557 171.593 531.83 171.593H655.682ZM655.682 170.229H531.83C530.875 170.229 530.056 171.048 530.056 172.002V189.598C530.056 190.553 530.875 191.371 531.83 191.371H655.682C656.637 191.371 657.455 190.553 657.455 189.598V172.002C657.455 171.048 656.637 170.229 655.682 170.229Z" fill="#2E3192"/>
<path d="M226.836 97.1182C238.43 97.1182 247.842 106.803 247.842 118.806C247.842 135.038 226.836 159.044 226.836 159.044C226.836 159.044 205.83 135.038 205.83 118.806C205.83 106.803 215.242 97.1182 226.836 97.1182ZM226.836 126.445C230.928 126.445 234.338 123.034 234.338 118.669C234.338 114.441 230.928 110.894 226.836 110.894C222.744 110.894 219.334 114.304 219.334 118.669C219.334 123.034 222.744 126.445 226.836 126.445ZM226.836 95.7542C214.56 95.7542 204.466 106.121 204.466 118.806C204.466 135.31 224.926 158.908 225.881 159.863C226.154 160.136 226.563 160.272 226.836 160.272C227.245 160.272 227.518 160.136 227.791 159.863C228.609 158.908 249.206 135.31 249.206 118.806C249.206 106.121 239.248 95.7542 226.836 95.7542ZM226.836 125.08C223.426 125.08 220.698 122.216 220.698 118.806C220.698 115.396 223.426 112.395 226.836 112.395C230.246 112.395 232.974 115.259 232.974 118.806C232.974 122.352 230.246 125.08 226.836 125.08Z" fill="#2E3192"/>
<path d="M288.762 170.229C289.035 170.229 289.171 170.366 289.171 170.638V188.234C289.171 188.507 289.035 188.643 288.762 188.643H164.91C164.637 188.643 164.5 188.507 164.5 188.234V170.638C164.5 170.366 164.637 170.229 164.91 170.229H288.762ZM288.762 168.865H164.91C163.955 168.865 163.136 169.684 163.136 170.638V188.234C163.136 189.189 163.955 190.007 164.91 190.007H288.762C289.717 190.007 290.535 189.189 290.535 188.234V170.638C290.535 169.684 289.717 168.865 288.762 168.865Z" fill="#2E3192"/>
<mask id="mask3_30_128" style="mask-type:luminance" maskUnits="userSpaceOnUse" x="0" y="0" width="979" height="699">
<path d="M978.272 0H0V698.239H978.272V0Z" fill="white"/>
</mask>
<g mask="url(#mask3_30_128)">
<path d="M978.272 565.793V574.114L977.454 565.93L978.272 565.793Z" fill="white"/>
</g>
<mask id="mask4_30_128" style="mask-type:luminance" maskUnits="userSpaceOnUse" x="0" y="0" width="979" height="699">
<path d="M978.272 0H0V698.239H978.272V0Z" fill="white"/>
</mask>
<g mask="url(#mask4_30_128)">
<path d="M126.308 429.392V498.548H110.212V470.994L112.395 433.62L98.8911 427.482L92.6167 492.273V498.684H73.7933L46.9222 482.18L-0.136353 473.45V476.587L46.3765 485.181L73.2477 501.685H108.303V526.101H110.212V501.685H125.899L118.124 537.013L113.077 562.383L123.171 602.213L124.944 600.985L115.259 562.248L120.033 538.104L128.081 501.685H128.354V429.392H126.308ZM108.303 470.722V498.411H94.5263V492.273L100.528 431.302L110.349 435.803L108.303 470.722Z" fill="white"/>
</g>
<mask id="mask5_30_128" style="mask-type:luminance" maskUnits="userSpaceOnUse" x="0" y="0" width="979" height="699">
<path d="M978.272 0H0V698.239H978.272V0Z" fill="white"/>
</mask>
<g mask="url(#mask5_30_128)">
<path d="M707.788 694.693H715.699V693.739L707.788 694.693ZM896.295 130.946V158.226L872.833 175.413C872.015 176.231 853.055 196.828 850.464 200.101C848.145 202.966 836.96 215.105 835.46 216.742L811.589 235.702L790.72 249.478L792.766 258.344L813.772 244.568L838.46 224.926C839.006 224.38 851.282 210.877 853.874 207.739C855.92 205.284 870.106 189.735 875.698 183.733L902.023 164.5V132.719L908.161 104.484L910.617 80.477H978.272V48.5591H888.656L841.87 6.01532e-05H805.724L812.544 7.22908L803.132 25.9164L743.116 84.8421L719.791 110.349L702.877 74.2024L696.193 24.6889H670.277L651.317 28.3713L630.857 24.5523L611.352 31.7814L607.532 -0.136475H602.213L614.489 103.256H598.53V38.6014L576.569 33.555V86.2061H556.109L551.199 73.93L521.327 68.3374H485.044L452.99 84.1601L408.25 100.801C406.34 84.9781 403.203 69.7013 398.838 55.2427L385.88 6.01532e-05H365.42C372.24 28.3716 385.062 81.9771 386.016 86.342L311.95 102.438L238.839 125.353L224.108 133.265H223.971V6.01532e-05H218.242V133.265H171.73L159.453 140.903L86.4786 144.586L85.933 74.8844H129.309L187.143 30.8269L218.242 0.136595H207.058L184.688 22.2332L128.081 65.3363H85.3874L79.7949 23.3249L68.8828 0.136595H61.6535L74.6117 27.5534L80.4769 70.6558L81.0226 144.995L38.6016 147.177L36.4192 0.27313H30.2812L33.0092 188.098L27.0075 348.233H15.6862L1.57058e-05 340.049V350.143L14.8678 357.918H57.4251L81.1589 370.467L77.8853 434.576L83.6141 435.394L86.8878 373.058L96.9816 377.969V397.202H218.379V561.566L219.743 574.933L175.958 606.987L79.2494 642.315V578.616L72.5657 533.057H36.2829L1.57058e-05 522.691V532.375L35.4644 542.469H67.928L73.384 579.025V600.849L36.8284 609.988V593.62L-0.136353 584.208V587.482L34.9189 596.484V672.596H-0.136353V681.326C-0.136353 681.599 -0.136353 681.872 -0.136353 682.144H36.4192L73.7933 655.001L76.6577 694.966H82.3866L79.3857 651.863L177.186 616.126L220.425 584.617L224.926 629.493L221.38 631.266C220.971 631.403 220.698 631.675 220.425 631.948L188.371 661.002C186.597 662.639 185.37 665.776 185.37 669.323V691.283L183.187 694.693L166.41 694.011L165.592 695.103H193.417L190.826 694.966C191.099 693.875 191.235 692.647 191.235 691.419V669.595L223.289 640.542L270.212 616.262H299.674L316.724 633.176C318.088 634.54 319.862 634.813 321.362 633.994L377.287 603.44C379.606 602.213 381.242 598.53 381.242 594.574L381.379 520.099L399.793 488.181H414.115L415.343 507.959L389.017 541.923L383.425 604.804L342.368 639.178L320.544 654.591L275.122 675.733L246.478 695.375H688.146L685.827 670.141L652.681 636.313L674.369 616.944L689.646 579.843L692.92 581.48H709.697L720.337 574.66V515.325L722.792 484.635V425.164H648.453L614.353 440.441L608.896 407.295L642.315 390.517C643.679 389.835 644.907 388.199 645.589 386.153L656.364 353.826H661.548V377.832H676.279L697.421 394.201L748.026 399.793L761.53 416.161L801.223 422.845V440.168H803.132V419.98L762.212 413.024L750.345 398.702L751.163 398.838L754.983 353.826H766.577C769.714 353.826 772.169 349.597 772.169 344.414V336.23L790.583 321.908H818.818C819.364 321.908 819.91 321.772 820.319 321.499C832.322 315.634 844.871 293.264 840.779 249.206L852.782 236.111C861.921 226.154 873.379 224.244 883.473 230.792C885.382 232.019 887.428 231.474 889.065 229.428L909.116 202.965L914.3 215.106L931.486 301.721L942.944 349.597L950.31 378.378L902.569 410.842V321.362L889.747 296.673H877.335L857.829 319.043L840.916 330.092H827.003L802.178 347.687H779.808V356.417H803.132L827.957 338.821H841.734L859.875 326.955L878.835 305.403H887.292L897.249 324.636V414.388L908.298 494.456L870.105 502.64H798.495L759.347 521.327V602.349L752.527 666.458L754.437 695.375H759.62L757.711 666.731L764.531 603.577V569.068L820.046 574.933L815.545 684.599L812.544 695.375H818.273L820.592 686.782L825.639 566.749L764.667 560.337V527.738L799.45 511.233H849.918V666.458H855.101V511.233H870.651L885.928 507.959V678.461H887.838V641.769L927.121 628.129L936.397 695.239L936.942 698.785L946.081 695.239L965.996 687.6L967.087 695.239H970.633C971.179 695.239 971.861 695.102 972.407 694.966L969.815 677.234L940.761 688.419L932.168 626.356L978.818 610.124V593.21L966.541 526.374L954.674 487.227L978.818 478.361V469.494L952.492 479.178L935.169 409.478L930.395 412.751L947.445 481.089L915.254 492.955L914.027 493.228L903.115 414.252L951.537 381.242L956.038 398.975L972.407 422.026L978.954 456.536V446.033L974.044 420.253L957.675 397.065L953.447 380.424L974.18 374.286L975.68 350.143L978.954 347.824V344.414L973.907 347.961L972.407 371.694L952.628 377.559L945.126 348.506L933.669 300.765L919.756 230.246L938.715 214.969L945.399 229.564L937.897 254.389L949.355 294.764H962.858L968.451 324.909L979.09 322.181V318.907L969.815 321.362L964.359 291.626H950.719L940.216 254.389L947.718 229.155L940.216 212.65L950.992 169.001L955.902 154.134L979.09 167.501V164.091L955.084 150.315L949.218 167.637L938.306 211.696L919.21 227.109L916.618 214.014L911.162 201.056L916.209 194.372C917.3 192.872 917.982 190.962 918.255 188.643L922.211 150.724L934.214 121.806L978.818 97.3906V87.2971L932.441 112.668C931.35 113.35 930.259 114.578 929.577 116.214L917.437 145.131C917.028 146.222 916.618 147.587 916.482 148.951L912.526 186.87L886.065 222.062C874.198 214.423 860.83 216.605 850.054 228.2L838.051 241.294C836.141 243.34 835.187 247.023 835.596 250.706C840.097 299.674 822.774 310.723 819.228 312.36H790.993C790.174 312.36 789.356 312.633 788.674 313.178L770.123 327.5C768.077 329.001 766.85 332.411 766.85 336.093L766.986 344.277H755.392L751.709 300.902V249.342L740.66 199.146L700.286 208.149L670.686 199.555L652.272 209.513V211.422L598.939 212.923V180.05L593.347 126.58L597.848 112.668H631.539V104.074H620.354L612.989 42.0115L631.676 35.0555L651.863 38.738L670.959 34.919H692.101L698.103 78.9764L719.109 123.717L737.796 103.256L749.117 132.719L770.669 173.776L799.995 160.135L822.365 148.541L849.1 143.222L866.968 137.084L865.741 127.672L848.281 133.81L821.41 139.13L798.358 150.997L772.578 163L753.755 127.262L742.434 98.0726L807.224 33.9639L817.864 12.9582L883.609 81.2955H905.161L903.115 102.438L896.295 130.946ZM80.7497 154.27L81.0226 186.325H38.8745L38.4653 156.453L80.7497 154.27ZM38.7381 189.598H81.0226L81.7046 279.487L74.4753 278.668C57.6979 274.985 39.2837 270.212 35.7372 268.029L38.7381 189.598ZM35.7372 268.438C35.8736 268.711 36.01 268.984 36.1464 269.393L35.6009 269.802L35.7372 268.438ZM81.7046 360.373L58.2435 347.961H32.7364L35.328 277.85C40.1021 280.169 50.605 283.306 73.9297 288.353L81.8409 289.308L82.2501 348.37L81.7046 360.373ZM86.4786 153.997L110.485 152.77V186.87L86.7514 186.325L86.4786 153.997ZM218.242 387.38H102.574V370.467L87.1606 363.101L87.8426 348.643L87.4335 289.853L106.939 292.036L106.393 294.218V325.045H112.122V296.265L119.624 269.12L151.542 280.987L150.724 319.043L185.779 335.139L218.242 327.364V387.38ZM120.443 266.256L125.626 247.432L168.047 256.298L166.41 323.135L152.633 316.861L153.452 278.668L120.443 266.256ZM168.32 323.954L169.956 256.572L184.824 259.708V331.592L168.32 323.954ZM218.242 324.227L186.734 331.865V260.118L218.242 266.665V324.227ZM218.242 256.98L122.079 237.066L109.53 282.76L87.297 280.305L86.615 189.735L110.349 190.28V214.151H112.258V190.28L167.365 191.235L218.106 178.823V256.98H218.242ZM218.242 175.276L167.365 187.825L112.395 186.87V152.77L160.545 150.315L172.821 142.813H218.379V175.276H218.242ZM73.384 644.906L36.8284 671.232V613.125L73.384 603.986V644.906ZM714.471 513.825V567.567L708.47 571.386H693.602L692.783 570.977L699.058 554.472L648.999 552.29L639.45 497.184H715.835L714.471 513.825ZM649.135 434.166H717.063V483.135L716.654 487.772H637.95L637.132 483.271L617.49 459.81L615.717 449.17L649.135 434.166ZM948.946 488.727L961.222 528.829L974.589 602.076L930.531 617.49L914.572 501.412L948.946 488.727ZM925.485 619.263L887.429 632.494V507.141L909.389 502.503L925.485 619.263ZM223.971 142.676H225.063L240.203 134.629L312.905 111.849L387.79 95.4812C389.29 104.211 390.381 113.077 390.927 122.079L403.067 315.906L378.241 310.177L323.272 317.816L284.124 343.732C281.669 344.278 228.473 355.326 223.835 356.827V142.676H223.971ZM356.417 322.863V390.517H329.273V326.682L356.417 322.863ZM327.364 326.955V390.517H315.906L301.175 395.701L300.493 343.459L324.772 327.364L327.364 326.955ZM223.971 560.747V459.128L252.752 449.17L260.254 484.362L278.668 503.595L286.989 555.154L260.254 590.619L252.752 578.888L225.199 573.978L223.971 560.747ZM230.519 626.22L226.29 583.799L250.433 588.027L263.801 608.896L230.519 626.22ZM399.657 478.088C398.156 478.088 396.656 479.179 395.564 480.952L377.014 512.87C375.923 514.643 375.377 516.962 375.377 519.417V593.756L319.452 624.31L302.402 607.532C301.584 606.714 300.493 606.168 299.538 606.168H270.348L261.891 592.801L289.444 556.382L280.578 501.549L262.027 482.18L254.116 445.351L223.971 455.718V366.375C232.019 363.92 264.619 357.099 285.352 353.007L285.761 352.871L298.583 344.414L299.265 396.11L254.116 411.796L244.022 362.146L242.249 363.237L252.889 415.616L316.042 393.519H327.5V430.756H357.509V427.619H329.41V393.655H358.463V322.59L378.241 319.862L403.885 325.863L413.433 478.224H399.657V478.088ZM409.341 110.212L438.258 99.4367V133.265L462.128 136.538L462.947 242.113H464.856L464.038 136.811L483.134 139.403L485.999 280.305H453.944L419.571 270.212C419.435 270.348 409.614 113.077 409.341 110.212ZM420.117 279.214L453.262 288.898H487.09L520.645 282.488H593.21V324.499L602.349 399.93L555.563 423.39C554.881 423.663 554.336 424.209 553.79 424.891L521.327 466.084L481.634 477.951C481.225 478.087 480.815 478.36 480.406 478.633L451.353 499.503L433.211 485.044L420.117 279.214ZM529.92 274.031V198.737L561.429 202.011V274.031H529.92ZM563.338 274.031V202.147L593.21 205.284V274.031H563.338ZM435.667 502.231L434.166 502.503L433.757 496.365L448.761 508.369L448.898 508.505L435.667 502.231ZM610.806 451.762L610.533 451.489L579.57 465.538L562.111 480.134L543.287 514.916L510.278 521.599L473.586 520.099L450.262 509.323C451.216 509.46 452.308 509.323 453.126 508.641L482.18 487.772L521.872 475.905C522.691 475.632 523.509 475.087 524.328 474.132L556.928 432.938L603.577 409.614L610.806 451.762ZM745.435 395.701L697.83 390.517L676.688 374.149L663.184 374.013V353.28H697.148L722.519 368.284C724.019 369.103 725.52 368.967 726.884 367.875L744.071 353.28H748.981L745.435 395.701ZM657.319 321.089V215.923L670.414 208.831L699.467 217.287L736.159 209.24L745.298 250.57V300.765L748.981 343.869H744.071C743.252 343.869 742.297 344.277 741.479 344.959L724.292 359.555L698.921 344.551C698.376 344.141 697.694 344.005 697.012 344.005H655.955C653.909 344.005 651.999 345.915 651.045 348.779L640.269 381.106L606.987 397.747L598.666 329.137L657.319 321.089ZM651.59 214.014V312.087L638.223 313.86L631.948 214.424L651.59 214.014ZM618.581 214.969L630.175 214.696L636.45 314.269L618.717 316.725V214.969H618.581ZM598.257 215.515L616.671 214.969V316.861L598.257 319.316V215.515ZM592.801 107.348L587.209 124.399L593.074 179.777V202.011L528.01 195.327V274.031H520.372L487.908 280.169L485.044 136.402L440.168 130.264V98.6181L454.354 93.2986L485.862 77.7489H520.917L548.061 82.7961L553.245 95.6177H582.435V44.3306L592.938 46.7855V107.348H592.801ZM976.908 292.99L978.272 302.538V292.445L976.908 292.99Z" fill="white"/>
</g>
</g>
<path d="M810.089 254.798C821.683 254.798 831.095 264.483 831.095 276.486C831.095 292.718 810.089 316.725 810.089 316.725C810.089 316.725 789.083 292.718 789.083 276.486C789.083 264.483 798.495 254.798 810.089 254.798ZM810.089 284.124C814.181 284.124 817.591 280.714 817.591 276.35C817.591 272.121 814.181 268.574 810.089 268.574C805.997 268.574 802.587 271.985 802.587 276.35C802.587 280.714 805.997 284.124 810.089 284.124ZM810.089 253.298C797.813 253.298 787.719 263.664 787.719 276.35C787.719 292.854 808.179 316.452 809.134 317.407C809.407 317.679 809.816 317.816 810.089 317.816C810.498 317.816 810.771 317.679 811.044 317.407C811.862 316.452 832.459 292.854 832.459 276.35C832.459 263.664 822.501 253.298 810.089 253.298ZM810.089 282.76C806.679 282.76 803.951 279.896 803.951 276.35C803.951 272.803 806.679 269.938 810.089 269.938C813.499 269.938 816.227 272.803 816.227 276.35C816.227 279.896 813.499 282.76 810.089 282.76Z" fill="#2E3192"/>
<path d="M872.015 327.773C872.288 327.773 872.424 327.91 872.424 328.182V345.778C872.424 346.051 872.288 346.187 872.015 346.187H748.162C747.89 346.187 747.753 346.051 747.753 345.778V328.182C747.753 327.91 747.89 327.773 748.162 327.773H872.015ZM872.015 326.409H748.162C747.208 326.409 746.389 327.228 746.389 328.182V345.778C746.389 346.733 747.208 347.551 748.162 347.551H872.015C872.97 347.551 873.788 346.733 873.788 345.778V328.182C873.788 327.228 872.97 326.409 872.015 326.409Z" fill="#2E3192"/>
<path d="M577.524 368.83C589.118 368.83 598.53 378.514 598.53 390.517C598.53 406.749 577.524 430.756 577.524 430.756C577.524 430.756 556.518 406.749 556.518 390.517C556.518 378.514 565.93 368.83 577.524 368.83ZM577.524 398.156C581.616 398.156 585.026 394.746 585.026 390.381C585.026 386.153 581.616 382.606 577.524 382.606C573.432 382.606 570.022 386.017 570.022 390.381C570.022 394.746 573.296 398.156 577.524 398.156ZM577.524 367.466C565.248 367.466 555.154 377.832 555.154 390.517C555.154 407.022 575.614 430.619 576.569 431.574C576.842 431.847 577.251 431.984 577.524 431.984C577.933 431.984 578.206 431.847 578.479 431.574C579.297 430.619 599.894 407.022 599.894 390.517C599.894 377.696 589.8 367.466 577.524 367.466ZM577.524 396.792C574.114 396.792 571.386 393.927 571.386 390.517C571.386 387.107 574.114 384.107 577.524 384.107C580.934 384.107 583.662 386.971 583.662 390.517C583.662 394.064 580.934 396.792 577.524 396.792Z" fill="#2E3192"/>
<path d="M639.45 441.941C639.723 441.941 639.86 442.077 639.86 442.35V459.946C639.86 460.219 639.723 460.355 639.45 460.355H515.598C515.325 460.355 515.189 460.219 515.189 459.946V442.35C515.189 442.077 515.325 441.941 515.598 441.941H639.45ZM639.45 440.44H515.598C514.643 440.44 513.825 441.259 513.825 442.214V459.81C513.825 460.765 514.643 461.583 515.598 461.583H639.45C640.405 461.583 641.224 460.765 641.224 459.81V442.214C641.087 441.259 640.405 440.44 639.45 440.44Z" fill="#2E3192"/>
<path d="M593.756 98.4822C605.35 98.4822 614.762 108.167 614.762 120.17C614.762 136.402 593.756 160.408 593.756 160.408C593.756 160.408 572.75 136.402 572.75 120.17C572.75 108.167 582.162 98.4822 593.756 98.4822ZM593.756 127.944C597.848 127.944 601.258 124.535 601.258 120.17C601.258 115.941 597.848 112.395 593.756 112.395C589.664 112.395 586.254 115.805 586.254 120.17C586.254 124.398 589.664 127.944 593.756 127.944ZM593.756 97.1182C581.48 97.1182 571.386 107.485 571.386 120.17C571.386 136.674 591.846 160.272 592.801 161.227C593.074 161.5 593.483 161.636 593.756 161.636C594.165 161.636 594.438 161.5 594.711 161.227C595.529 160.272 616.126 136.674 616.126 120.17C616.126 107.485 606.168 97.1182 593.756 97.1182ZM593.756 126.444C590.346 126.444 587.618 123.58 587.618 120.033C587.618 116.487 590.346 113.622 593.756 113.622C597.166 113.622 599.894 116.487 599.894 120.033C599.894 123.716 597.166 126.444 593.756 126.444Z" fill="#2E3192"/>
<path d="M655.682 171.593C655.955 171.593 656.091 171.73 656.091 172.002V189.598C656.091 189.871 655.955 190.007 655.682 190.007H531.83C531.557 190.007 531.42 189.871 531.42 189.598V172.002C531.42 171.73 531.557 171.593 531.83 171.593H655.682ZM655.682 170.229H531.83C530.875 170.229 530.056 171.048 530.056 172.002V189.598C530.056 190.553 530.875 191.371 531.83 191.371H655.682C656.637 191.371 657.455 190.553 657.455 189.598V172.002C657.455 171.048 656.637 170.229 655.682 170.229Z" fill="#2E3192"/>
<path d="M226.836 97.1182C238.43 97.1182 247.842 106.803 247.842 118.806C247.842 135.038 226.836 159.044 226.836 159.044C226.836 159.044 205.83 135.038 205.83 118.806C205.83 106.803 215.242 97.1182 226.836 97.1182ZM226.836 126.445C230.928 126.445 234.338 123.034 234.338 118.669C234.338 114.441 230.928 110.894 226.836 110.894C222.744 110.894 219.334 114.304 219.334 118.669C219.334 123.034 222.744 126.445 226.836 126.445ZM226.836 95.7542C214.56 95.7542 204.466 106.121 204.466 118.806C204.466 135.31 224.926 158.908 225.881 159.863C226.154 160.136 226.563 160.272 226.836 160.272C227.245 160.272 227.518 160.136 227.791 159.863C228.609 158.908 249.206 135.31 249.206 118.806C249.206 106.121 239.248 95.7542 226.836 95.7542ZM226.836 125.08C223.426 125.08 220.698 122.216 220.698 118.806C220.698 115.396 223.426 112.395 226.836 112.395C230.246 112.395 232.974 115.259 232.974 118.806C232.974 122.352 230.246 125.08 226.836 125.08Z" fill="#2E3192"/>
<path d="M288.762 170.229C289.035 170.229 289.171 170.366 289.171 170.638V188.234C289.171 188.507 289.035 188.643 288.762 188.643H164.91C164.637 188.643 164.5 188.507 164.5 188.234V170.638C164.5 170.366 164.637 170.229 164.91 170.229H288.762ZM288.762 168.865H164.91C163.955 168.865 163.136 169.684 163.136 170.638V188.234C163.136 189.189 163.955 190.007 164.91 190.007H288.762C289.717 190.007 290.535 189.189 290.535 188.234V170.638C290.535 169.684 289.717 168.865 288.762 168.865Z" fill="#2E3192"/>
</svg>
