<?xml version="1.0" encoding="utf-8"?>
<!-- Generator: Adobe Illustrator 25.2.1, SVG Export Plug-In . SVG Version: 6.00 Build 0)  -->
<svg version="1.1" id="Capa_1" xmlns="http://www.w3.org/2000/svg" xmlns:xlink="http://www.w3.org/1999/xlink" x="0px" y="0px"
	 viewBox="0 0 450.8 438.5" style="enable-background:new 0 0 450.8 438.5;" xml:space="preserve">
<style type="text/css">
	.st0{fill-rule:evenodd;clip-rule:evenodd;fill:#FFFFFF;}
</style>
<g>
	<path class="st0" d="M159.8,189c-27.2,3-40.6,27.9-35.7,48.9c6.1,25,32.1,34.1,49.8,30.8c14.1-2.7,47.2-27.8,79.4-48
		C206.6,201.3,177.4,187.1,159.8,189z"/>
	<path class="st0" d="M192.5,302.1c-12.7,24.2,0.5,49.2,20.6,56.9c24.1,8.9,46.2-7.6,53.4-24.1c5.7-13.2,3.3-54.7,4.6-92.7
		C228.9,270.1,200.9,286.4,192.5,302.1z"/>
	<path class="st0" d="M56,49.8v338.9h338.9V49.8H56z M205.2,74.7c18-13.5,47-11.3,60.9,13.2c8.8,16,7.1,49.8,7.5,102.3
		c-32.1-22.1-69.4-42.9-77.6-55.2C185.8,119.7,183.9,91,205.2,74.7z M288.4,377.9H66.8V173.6c54.1-28.6,139.5-34.1,201.1,43.8
		S288.4,377.9,288.4,377.9z M374,127.4c-8,16.5-36.6,34.5-79.3,65.1c-0.5-39-4.9-81.4,0.4-95.2c6.7-17.2,29-35.2,54.7-27.2
		C371.2,77,386.1,102,374,127.4L374,127.4z"/>
</g>
</svg>
