<svg id="Capa_1" data-name="Capa 1" xmlns="http://www.w3.org/2000/svg" viewBox="0 0 1920 438.55"><defs><style>.cls-1{fill:#fff;fill-rule:evenodd;}</style></defs><path class="cls-1" d="M187.32,182c-27.21,3-40.59,27.88-35.68,48.91,6.09,25,32.09,34.06,49.77,30.81,14.09-2.68,47.18-27.82,79.42-48C234.2,194.27,205,180.08,187.32,182Z"/><path class="cls-1" d="M220.06,295.07c-12.72,24.22.46,49.21,20.63,56.91,24.12,8.92,46.17-7.6,53.36-24.07,5.68-13.18,3.3-54.68,4.56-92.69C256.5,263.09,228.42,279.36,220.06,295.07Z"/><path class="cls-1" d="M83.52,42.81V381.75H422.46V42.81ZM232.78,67.67c18-13.53,47-11.35,60.87,13.23,8.82,16,7.15,49.77,7.5,102.32C269,161.13,231.77,140.35,223.56,128,213.37,112.68,211.5,84,232.78,67.67ZM316,370.94H94.33V166.6C148.4,138,233.79,132.54,295.42,210.38S316,370.94,316,370.94Zm85.59-250.51c-8,16.47-36.59,34.51-79.31,65.07-.45-39-4.91-81.44.41-95.23,6.74-17.17,29-35.17,54.68-27.21C398.76,70,413.71,95,401.54,120.43Z"/><path class="cls-1" d="M771.94,255.25v47.84h17.44a23.92,23.92,0,1,0-.11-47.84Zm-43-38.92h73.78c17,0,53.52,20.27,53.52,60a57.66,57.66,0,0,1-21.08,44.6s18.65,5.68,18.65,25.95v34.77H813.3a95.86,95.86,0,0,0,.17-16.35l-.17-2a58.82,58.82,0,0,0-1.41-8.2,24.56,24.56,0,0,0-23.16-16.37H771.94v42.88H729V216.33Z"/><path class="cls-1" d="M1392.86,299a39.89,39.89,0,1,0,39.89-39.89A39.88,39.88,0,0,0,1392.86,299Zm-45.25,0a85.14,85.14,0,1,1,85.14,85.14A85.14,85.14,0,0,1,1347.61,299Z"/><path class="cls-1" d="M1163.35,303.09v-47c-21.89,0-43,18-43,38.88v8.15Zm41.35-86.36v165h-41.35v-43h-43v43h-42.16V303.09c0-47.84,34.14-86.36,85.14-86.36Z"/><polygon class="cls-1" points="450.84 216.33 450.84 380.94 495.44 380.94 495.44 322.55 561.12 322.55 561.12 282.01 495.44 282.01 495.44 258.5 576.52 258.5 576.52 216.33 450.84 216.33 450.84 216.33"/><path class="cls-1" d="M664.1,303.09v-47c-21.9,0-43,18-43,38.88v8.15Zm41.35-86.36v165H664.1v-43h-43v43H579V303.09c0-47.84,34.14-86.36,85.14-86.36Z"/><path class="cls-1" d="M871.68,216.33V381.65h42.16V256.06s30.42-.81,30.42,29.68v95.91h42.16V285.74c0-30.49,30.42-30.49,30.42-30.49v126.4H1059V216.33h-56c-22.71,0-35.66,21.89-35.66,21.89s-13-21.89-35.65-21.89Z"/><polygon class="cls-1" points="1217.92 216.33 1217.92 256.06 1266.16 256.06 1266.16 381.64 1307.52 381.64 1307.52 256.06 1355.76 256.06 1355.76 216.33 1217.92 216.33 1217.92 216.33"/><path class="cls-1" d="M1572,255.25v83.52s44.34-2.36,44.34-40.29c0-43.41-44.34-43.23-44.34-43.23Zm-45.1-38.92h48.65c47,0,83.52,35.87,83.52,86.76,0,35.68-34.06,78.56-83.52,78.56h-48.65V216.33Z"/><path class="cls-1" d="M1710.21,299a39.89,39.89,0,1,0,39.89-39.89A39.88,39.88,0,0,0,1710.21,299ZM1665,299a85.14,85.14,0,1,1,85.14,85.14A85.14,85.14,0,0,1,1665,299Z"/></svg>