<?xml version="1.0" encoding="utf-8"?>
<!-- Generator: Adobe Illustrator 23.0.5, SVG Export Plug-In . SVG Version: 6.00 Build 0)  -->
<svg version="1.1" id="Capa_1" xmlns="http://www.w3.org/2000/svg" xmlns:xlink="http://www.w3.org/1999/xlink" x="0px" y="0px"
	 viewBox="0 0 542 410.1" style="enable-background:new 0 0 542 410.1;" xml:space="preserve">
<style type="text/css">
	.st0{fill:#593696;}
	.st1{fill:#FF8DBB;}
	.st2{fill:#FFB4D6;}
	.st3{fill:#FF8CBA;}
	.st4{fill:#00A92E;}
	.st5{fill:#5AC000;}
	.st6{fill:#00AB2B;}
	.st7{fill:#EB2338;}
	.st8{fill:#FF2731;}
	.st9{fill:#ED243A;}
	.st10{fill:#F8B300;}
	.st11{fill:#EDD500;}
	.st12{fill:#F6B300;}
	.st13{fill:#008BCE;}
	.st14{fill:#00B9EA;}
	.st15{fill:#FFFFFF;}
</style>
<g>
	<path class="st0" d="M477.8,157.1c-17.5-11.9-63.4-23-60.3-41.5c4.9-29.5,84-26,84-26l3.3-55.7l-19.6-9.2L373.3,50.1
		c0,0-19-22.3-52-23.2C285.9,26,199.3,99.3,199.3,99.3l35.7,93.7l-15.4-2.4L179.5,148l-17.2,1.3l-30.8,20.2l-4.4-15.5h-19
		l-26.2,54.2L64.4,206l-29.8,57.2L108,382.6l6.3,8.9l37.2-20.3l-13.8-24.1l62.9-18.9l24.1-14.7l18.3,29.4l59.1-34.1l-8.3-15.7
		l17.4-2.2l19.7-11.5c0,0,9.8,31.7,86.2,32.2c63.1,0.4,100.1-48.3,101.4-74.4C519.6,214.8,525,189.1,477.8,157.1z M88.1,269
		l-10.5-13.8l17.7-18.7l14.5,21.7L88.1,269z M172.5,285.5l-15.1-63.8l36.7,57.6L172.5,285.5z M295,130.8l-18.5-39.1
		c0,0,16.4-11,21.8-9.8c5.4,1.2,16.5,31.5,16.5,31.5L295,130.8z M394.1,224.9c-10.5,0.2-25.2-8.4-25.2-8.4l-23.8,6.9l-17.5,10.4
		l-6.3-18.9c0,0,28.2-16.3,35.4-30.3c7.2-14,59.7,25.9,59.7,25.9l-11.2,8.3C405.2,218.7,406,224.6,394.1,224.9z"/>
</g>
<path class="st1" d="M327.7,233.8l17.5-10.4c0,0,22.1,11.9,41.9,11.9c17.2,0,18.1-16.5,18.1-16.5l20.1,33.5l-80.2,3.5L327.7,233.8z"
	/>
<path class="st1" d="M469.3,11l19.5,9v58.2c0,0-81.6,1.8-84.5,36.7c-1.7,20.5,31.9,29.9,46.9,36.6c24.7,11.1,51.7,31,51.7,72.2
	c0,84.3-103.9,84.3-103.9,84.3L363.3,286l94.4-52.8l-81.8-89.7l-2.5-66.6L469.3,11z"/>
<g>
	<path class="st2" d="M487,225.6c-1.9-33.8-19.9-53.6-31.9-60.3c-17.1-9.6-62.3-21.7-60.3-50.3c2.6-38,74.6-42.9,74.6-42.9V11
		c0,0-57,7.6-100.3,34.9c-12,7.6-22.9,16.6-31.2,27.5l-14.9,66c4.4,24,17.6,38.6,32,48.3c19.8,13.3,41.8,17.4,46.9,23.7
		c3.3,4.1,6,12.8,2.9,21c-4.8,12.6-14.8,16.2-21.8,17c-14.3,1.7-55.2-15.6-55.2-15.6l2.1,57.3c0,0,27.5,17,69.2,17
		C457,308.1,488.8,256.8,487,225.6z"/>
	<path class="st2" d="M321.4,119.2c-0.1,7.4,0.4,14.1,1.5,20.2l14.9-66C328,86.1,321.7,101.2,321.4,119.2z"/>
	<path class="st3" d="M386.4,113.3c0-44.7-17.3-67.4-17.3-67.4c-12,7.6-22.9,16.6-31.2,27.5l-14.9,66c4.4,24,17.6,38.6,32,48.3h0
		C354.9,187.7,386.4,155.9,386.4,113.3z"/>
</g>
<g>
	<path class="st4" d="M301.4,24.7c0,0,66.7,0.1,71.7,72.5c5.1,74.3-69.6,114.3-69.6,114.3l14.3,63.3l-15.8,8.4l-27.7-81.6
		l64.5-100.7L301.4,24.7z"/>
</g>
<g>
	<path class="st4" d="M291.8,155.7L262,88.6c0,0,47.3-24.5,59.7-9.3s10.7-3.6,10.7-3.6l-31-31.9l-78.1,38.9l46.6,96l25.9-19.8
		L291.8,155.7z"/>
</g>
<g>
	<path class="st5" d="M360.2,68.9C320-42.2,179.5,91.2,179.5,91.2s28,59.7,35.5,84c1.1,3.6,2.4,8.1,4,13.2
		c10.4,35.3,28.6,101.1,28.6,101.1l39.5-4.6l15-1.8l-17.7-75.1C284.3,208.1,390.2,152,360.2,68.9z M271.3,157.1L243,86.3
		c0,0,36.9-27.4,50.7,6C307.4,125.6,271.3,157.1,271.3,157.1z"/>
	<path class="st6" d="M218.9,188.4c10.4,35.3,28.6,101.1,28.6,101.1l39.5-4.6l2.6-0.7C289.6,284.2,250.4,221.3,218.9,188.4z"/>
</g>
<path class="st7" d="M145.9,143.5h18.6c0,0,26.7,27.2,64.2,73.9c25,31.2,58.1,87.6,58.1,87.6l-14.4,7.3L145.9,143.5z"/>
<g>
	<path class="st8" d="M212.8,220.8c-26.8-35.7-66.9-77.2-66.9-77.2L134,158.4l-18.3,23c0,0,29.7,37.6,45.1,58.6
		c2.3,3.2,4.4,6,5.9,8.2c7.8,11.3,22,33.7,34.5,53.6c4.3,6.8,8.4,13.4,11.9,19.1c7.3,11.7,12.3,19.9,12.3,19.9l47-28.5
		C272.4,312.3,236.3,252,212.8,220.8z"/>
	<path class="st7" d="M115.7,181.4c0,0,29.7,37.6,45.1,58.6c-4.3-17.7-16.7-67-26.8-81.6L115.7,181.4z"/>
	<path class="st9" d="M214.8,270.6l-10.8,4.5l-2.7,26.7c4.3,6.8,8.4,13.4,11.9,19.1l4.4-3.2L214.8,270.6z"/>
</g>
<path class="st10" d="M95.2,149.3H112c0,0,43,116.7,47.4,135.1c4.4,18.3-13.8,12.8-13.8,12.8L95.2,149.3z"/>
<g>
	<path class="st11" d="M189.1,270l-44.4,18.7c0,0-11.1-36.7-23.4-72c-12-34.4-25.1-67.5-26-67.5c-1.9,0-33.9,23.8-33.9,23.8
		s25.9,54.6,33.2,76c1.9,5.6,4.8,14,8,23.3c4.4,12.9,9.5,27.8,13.7,40.2c5.1,14.9,8.9,26.1,8.9,26.1l67.6-20.4L189.1,270z"/>
	<path class="st12" d="M125.2,277.7c-4.6-6.3-10.7-13.3-10.7-13.3l-9.3,1.4l-2.7,6.5c4.4,12.9,9.5,27.8,13.7,40.2l19.2-19.5
		C135.4,293.1,130.5,285,125.2,277.7z"/>
</g>
<polygon class="st10" points="189.1,270 203.4,263.2 206.2,310.2 192.7,318.3 189.1,319.4 187,274.1 "/>
<path class="st13" d="M48.3,204.4c0,0,17.1-2.5,18.5-2.2c1.4,0.3,18,26,18,26l-21.4,24.5l15.8,18.7l8.1-8.6c0,0,14.6-4.6,14.9-5
	c0.3-0.3,19.5,29,19.7,30.7c0.3,1.7-19,19.1-19.4,19.7c-0.2,0.2,8.3,13.5,16.4,27.7c9.2,16.2,18.1,33.6,18.1,33.6l-13.1,7.3
	L40.7,256.6L48.3,204.4"/>
<path class="st14" d="M11,261.7c0,0,35.7-56.9,37.3-57.3s21.4,27.3,21.4,27.3l-19.1,25.2c0,0,17.2,22.8,17.7,24.5
	c0.5,1.6,18.9-18.4,18.9-18.4s21.4,29.1,21.4,30.1s-20.3,21.2-20.3,21.2s12.7,21.3,16.7,28.4c4.8,8.5,18.7,34.3,18.7,34.3l-24.5,13
	c0,0-26.9-46.3-48.3-77.7C41.8,298.5,11,261.7,11,261.7z"/>
<path class="st13" d="M109.9,384.2"/>
<g>
	<path class="st15" d="M162.1,241.7l8.6,36.1l12.1-5.1c-6.3-9.9-12.1-18.7-16.1-24.5C165.5,246.4,163.9,244.2,162.1,241.7z"/>
	<path class="st15" d="M91.4,240.6l-13.8,14.6l7.5,9.9l2.1-2.2c0,0,6.5-2.1,10.9-3.5c-1.4-4-2.6-7.5-3.5-10.3
		C93.7,246.6,92.6,243.7,91.4,240.6z"/>
	<path class="st15" d="M289.1,84.4c-6.1,2.9-12.6,7.2-12.6,7.2l16.5,34.8c4-10.2,5.6-22,0.6-34.1C292.3,89.1,290.8,86.5,289.1,84.4z
		"/>
	<path class="st15" d="M525.4,193.9c-6.5-16.3-20-31.3-41.5-45.9c-6.3-4.3-15-8.1-24.2-12.2c-8.2-3.6-16.6-7.3-23-11.3
		c-7.1-4.3-8.2-6.9-8.4-7.3c1.5-8.4,24.5-16.9,65.6-16.9c4.3,0,7,0.1,7.1,0.1c0.2,0,0.3,0,0.5,0c5.8,0,10.6-4.5,11-10.4l2.6-43.6
		l1.5-18.6c0.3-3.8-1.8-7.5-5.2-9.1l-16.8-8.1c-0.4-0.2-0.8-0.5-1.2-0.6l-19.5-9c-1.4-0.7-3-1-4.6-1c-0.5,0-1,0-1.4,0.1
		c-2.3,0.3-54.4,7.5-98,32.4c-20.9-17.6-58.7-18.8-65.1-18.8c-0.7,0-1.4,0-2.1,0c-0.7,0-1.1,0-1.3,0c0,0,0,0,0,0
		c-0.7,0-1.3,0.1-2,0.2c-57.8,3.7-124.7,66.6-127.6,69.3c-3.4,3.3-4.4,8.4-2.4,12.6c0.2,0.4,11.7,25,21.8,48.7l-3.8-4.1
		c-2.1-2.2-5-3.5-8-3.5c-0.3,0-0.5,0-0.8,0l-4.7,0.4c-1-1-1.5-1.5-1.5-1.6c-2.1-2.1-4.9-3.3-7.9-3.3h-18.6c-3.3,0-6.5,1.5-8.6,4.1
		l-5.8,7.2c-1.4-0.6-2.9-1-4.5-1H121c-2-2.9-5.3-4.6-9-4.6H95.2c-4.1,0-6.1,0.9-24.1,14c-8.2,5.9-16.3,11.9-16.4,12
		c-4.2,3.1-5.6,8.8-3.4,13.5c0,0.1,2.8,5.8,6.6,14.2c-3.9,0.5-8.2,1.1-11.3,1.5c-0.5,0.1-1,0.2-1.4,0.3c-4.5,1.3-6.2,3.9-12.7,13.7
		c-3.2,4.8-7.5,11.5-12.8,19.8c-9,14.1-18,28.4-18.1,28.6c-2.5,4-2.2,9.2,0.9,12.9c0.3,0.4,30.5,36.6,39.4,49.6
		c18.9,27.8,42.6,68,47.1,75.8h0l6.3,12c2,3.8,6.7,5.1,10.4,3c7.5-4.3,18.6-10.6,18.4-10.5l32.6-17.7c2.6-1.4,4.5-3.8,5.3-6.7
		c0.8-2.8,0.4-5.9-1-8.5l-6.9-12.1l49.6-14.9c0.9-0.3,1.8-0.7,2.6-1.1l3-1.9c4.1,6.6,6.6,10.8,6.7,10.8c2.1,3.4,5.7,5.2,9.4,5.2
		c1.9,0,3.9-0.5,5.7-1.6l2.6-1.6l0,0.1c2.1,3.3,5.7,5.2,9.3,5.2c1.9,0,3.8-0.5,5.5-1.5l59.1-34.1c5.1-3,7-9.4,4.2-14.7l-0.9-1.6
		l1.6-0.2c1.5-0.2,2.9-0.7,4.2-1.4l4.3-2.5c0.8,1,1.7,1.8,2.8,2.5c0.6,0.3,13.8,8.4,35.5,13.8c15.6,5.4,35,8.2,57.6,8.4
		c0.3,0,0.6,0,0.9,0c16.1,0,31.7-2.9,46.1-8.8c12.7-5.1,24.4-12.4,34.6-21.5c18.2-16.3,31.3-38.6,31.7-59.2
		C530.5,221.7,531.3,208.6,525.4,193.9z M518.5,237.2c-1.3,26-37.9,74.4-100.6,74.4c-0.3,0-0.5,0-0.8,0c-24.3-0.2-41.9-3.5-54.6-7.9
		c-20.6-5-32.8-12.6-32.8-12.6l-0.4-10.7L311.2,291l-17.4,2.2l8.3,15.7l-59.1,34.1l-5.8-9.3l-11.9,7.2c0,0-5.1-8.3-12.5-20.1
		l-12.4,7.5l-62.9,18.9l13.8,24.1l-37.2,20.3l-4.9-7l-10,5.4c0,0-26.9-46.3-48.3-77.7c-9.3-13.6-40-50.4-40-50.4
		s35.7-56.9,37.3-57.3c0,0,14.9-2.2,18-2.2c0.2,0,0.4,0,0.5,0c0.4,0.1,1.8,1.9,3.6,4.5l6.9,0.8c-8.2-18.2-15.9-34.5-15.9-34.5
		s32-23.8,33.9-23.8H112c0,0,0.6,1.7,1.7,4.6H127l2.8,9.8l16.1-20.2h18.6c0,0,1.8,1.8,5,5.2l9.9-0.7l40.1,42.6
		c-1.8-6.1-3.4-11.4-4.6-15.4c-7.5-24.3-35.5-84-35.5-84s67.3-63.9,122-66.4l0-0.1c0,0,0.4,0,1.2,0c0.7,0,1.4,0,2.2,0
		c5.7,0,11.3,0.7,16.5,2.3c0,0,0,0,0,0c0,0,0,0,0,0c0,0,0,0,0,0c23.8,0.6,40.3,12.4,47.7,18.9C412.3,18.6,469.3,11,469.3,11l19.5,9
		v6.4l16,7.5l-3.3,55.7c0,0-2.9-0.1-7.5-0.1c-19.9,0-72.5,2.3-76.5,26.2c-3.1,18.6,42.8,29.7,60.3,41.5
		C525,189.1,519.6,214.8,518.5,237.2z"/>
	<path class="st15" d="M354.9,187.7c-9.3,13.2-33.5,27.2-33.5,27.2l6.3,18.9l17.5-10.4l23.8-6.9c0,0,14.3,8.4,24.8,8.4
		c0.1,0,0.3,0,0.4,0c8.3-0.2,10.4-3.1,11-4.8c0.1-0.8,0.2-1.3,0.2-1.3c-0.8-3-2.1-5.6-3.5-7.3C396.7,205.1,374.6,201,354.9,187.7z"
		/>
</g>
<g>
	<g>
		<path class="st15" d="M520.7,321.9v-14.7h7.7c1,0,1.8,0.2,2.5,0.5c0.7,0.4,1.2,0.9,1.5,1.5c0.3,0.7,0.5,1.4,0.5,2.2
			c0,1-0.2,1.9-0.7,2.6c-0.5,0.7-1.1,1.3-1.9,1.6l3.1,6.2h-2.2l-2.9-5.9h-5.6v5.9H520.7z M522.7,314.3h5.5c0.8,0,1.5-0.3,1.9-0.8
			c0.5-0.5,0.7-1.2,0.7-2.1c0-0.5-0.1-1-0.3-1.4c-0.2-0.4-0.5-0.7-0.9-0.9c-0.4-0.2-0.9-0.3-1.4-0.3h-5.5V314.3z"/>
	</g>
	<path class="st15" d="M526.2,330.2c-8.7,0-15.8-7.1-15.8-15.8s7.1-15.8,15.8-15.8c8.7,0,15.8,7.1,15.8,15.8
		S534.9,330.2,526.2,330.2z M526.2,301.5c-7.1,0-12.8,5.7-12.8,12.8s5.7,12.8,12.8,12.8c7.1,0,12.8-5.7,12.8-12.8
		S533.2,301.5,526.2,301.5z"/>
</g>
</svg>
