<?xml version="1.0" encoding="UTF-8"?>
<svg width="856px" height="165px" viewBox="0 0 856 165" version="1.1" xmlns="http://www.w3.org/2000/svg" xmlns:xlink="http://www.w3.org/1999/xlink">
    <title>logo_farmatodo_blanco_vf</title>
    <defs>
        <polygon id="path-1" points="4.57966998e-15 -2.77555756e-16 678.669279 -2.77555756e-16 678.669279 84.126002 4.57966998e-15 84.126002"></polygon>
        <polygon id="path-3" points="0 -1.11022302e-16 156.433204 -1.11022302e-16 156.433204 161.7163 0 161.7163"></polygon>
    </defs>
    <g id="Page-1" stroke="none" stroke-width="1" fill="none" fill-rule="evenodd">
        <g id="logo_farmatodo_blanco_vf" transform="translate(0.000000, 0.680000)">
            <g id="Fill-1-Clipped" transform="translate(176.561620, 79.247618)">
                <mask id="mask-2" fill="white">
                    <use xlink:href="#path-1"></use>
                </mask>
                <g id="path-1"></g>
                <path d="M252.438486,13.4971204 L252.334326,13.1493604 C248.749206,0.784560089 240.552485,0.045360072 225.928085,7.10000023e-08 L206.831525,7.10000023e-08 L206.831525,81.4749619 L225.928085,81.4749619 L225.928085,19.0764005 C232.510325,17.6954405 241.841045,20.0121605 241.841045,35.1086409 L241.841045,81.4749619 L262.001046,81.4749619 L262.001046,35.1086409 C262.001046,20.0121605 271.341846,17.6954405 277.905606,19.0764005 L277.905606,81.4749619 L297.000487,81.4749619 L297.000487,7.10000023e-08 L277.905606,7.10000023e-08 C263.279526,0.045360072 256.055526,1.0029601 252.438486,13.4971204 L252.438486,13.4971204 Z M179.130004,2.89632014 C171.324724,-0.006719929 165.824404,-7.15991604e-08 155.300884,-7.15991604e-08 L136.469763,-7.15991604e-08 L136.469763,81.4749619 L155.300884,81.4749619 L155.300884,59.7206414 L166.600564,59.7206414 C174.024484,59.7206414 178.026244,66.3264016 178.026244,72.5272817 L178.026244,81.4749619 L196.182004,81.4749619 L196.182004,69.4680017 C196.182004,58.6185614 193.289044,55.0536013 189.036964,51.7473613 C192.457444,47.8732812 197.148004,42.238561 197.148004,27.7855207 C197.148004,15.7516804 190.228084,7.02576023 179.130004,2.89632014 L179.130004,2.89632014 Z M164.398084,43.0735211 L155.300884,43.0735211 L155.300884,18.3741605 C157.236244,18.4128005 159.909124,18.4312805 163.559764,18.4312805 C173.878324,18.4312805 178.311844,24.6355206 178.311844,30.6751208 C178.311844,38.515681 172.781284,43.0735211 164.398084,43.0735211 L164.398084,43.0735211 Z M0,81.4749619 L20.0440805,81.4749619 L20.0440805,51.6633613 L51.2265612,51.6633613 L51.2265612,32.8792808 L20.0440805,32.8792808 L20.0440805,19.2040805 L60.1456814,19.2040805 L60.1456814,7.10000023e-08 L0,7.10000023e-08 L0,81.4749619 Z M62.7144014,41.771521 L62.7144014,81.4749619 L82.4040019,81.4749619 L82.4040019,59.9508014 L104.047442,59.9508014 L104.047442,81.4749619 L123.142323,81.4749619 L123.142323,7.10000023e-08 L102.261602,7.10000023e-08 C77.6664018,7.10000023e-08 62.7144014,20.9042406 62.7144014,41.771521 L62.7144014,41.771521 Z M104.047442,43.1222411 L82.5652819,43.1172011 L82.5652819,35.6412009 C82.5652819,25.4688007 92.0824821,18.7000805 102.261602,18.7000805 C102.873122,18.7000805 103.467842,18.7152005 104.047442,18.7538405 L104.047442,43.1222411 Z M637.650734,7.10000023e-08 C615.000974,7.10000023e-08 596.631854,18.8344805 596.631854,42.065521 C596.631854,65.2864816 615.000974,84.126002 637.650734,84.126002 C660.308895,84.126002 678.669615,65.2864816 678.669615,42.065521 C678.669615,18.8344805 660.308895,7.10000023e-08 637.650734,7.10000023e-08 L637.650734,7.10000023e-08 Z M637.650734,63.1125615 C626.544254,63.1125615 617.522654,53.6844013 617.522654,42.065521 C617.522654,30.4248008 626.544254,21.0067206 637.650734,21.0067206 C648.768975,21.0067206 657.777135,30.4248008 657.777135,42.065521 C657.777135,53.6844013 648.768975,63.1125615 637.650734,63.1125615 L637.650734,63.1125615 Z M310.902487,41.771521 L310.902487,81.4749619 L330.595448,81.4749619 L330.595448,59.9508014 L352.254008,59.9508014 L352.254008,81.4749619 L371.347208,81.4749619 L371.347208,7.10000023e-08 L350.463128,7.10000023e-08 C325.869607,7.10000023e-08 310.902487,20.9042406 310.902487,41.771521 L310.902487,41.771521 Z M352.254008,43.1222411 L330.773528,43.1172011 L330.773528,35.6412009 C330.773528,25.4688007 340.284008,18.7000805 350.463128,18.7000805 C351.079688,18.7000805 351.676088,18.7152005 352.254008,18.7538405 L352.254008,43.1222411 Z M551.715373,7.10000023e-08 C550.554493,7.10000023e-08 549.402012,0.055440073 548.261292,0.166320075 L548.261292,7.10000023e-08 L529.174812,7.10000023e-08 L529.174812,81.4749619 L548.261292,81.3372019 C549.402012,81.4262419 550.554493,81.4749619 551.715373,81.4749619 C573.881293,81.4749619 591.862333,63.2234415 591.862333,40.738321 C591.862333,18.2481605 573.881293,7.10000023e-08 551.715373,7.10000023e-08 L551.715373,7.10000023e-08 Z M551.715373,62.6371215 C550.532653,62.6371215 549.393612,62.5447215 548.261292,62.3683215 L548.261292,19.1167205 C549.381852,18.9302405 550.532653,18.8412005 551.715373,18.8412005 C563.801293,18.8412005 573.615853,28.6389607 573.615853,40.738321 C573.615853,52.8376813 563.801293,62.6371215 551.715373,62.6371215 L551.715373,62.6371215 Z M443.89465,7.10000023e-08 L376.755129,7.10000023e-08 L376.755129,17.2922405 L401.894649,17.2922405 L401.894649,81.4581619 L420.99121,81.4581619 L420.99121,17.2922405 L443.89465,17.2922405 L443.89465,7.10000023e-08 Z M481.089851,7.10000023e-08 C458.43001,7.10000023e-08 440.07433,18.8344805 440.07433,42.065521 C440.07433,65.2864816 458.43001,84.126002 481.089851,84.126002 C503.746331,84.126002 522.102012,65.2864816 522.102012,42.065521 C522.102012,18.8344805 503.746331,7.10000023e-08 481.089851,7.10000023e-08 L481.089851,7.10000023e-08 Z M481.089851,63.1125615 C469.983371,63.1125615 460.95169,53.6844013 460.95169,42.065521 C460.95169,30.4248008 469.983371,21.0067206 481.089851,21.0067206 C492.221531,21.0067206 501.222971,30.4248008 501.222971,42.065521 C501.222971,53.6844013 492.221531,63.1125615 481.089851,63.1125615 L481.089851,63.1125615 Z" id="Fill-1" fill="#FEFEFE" fill-rule="nonzero" mask="url(#mask-2)"></path>
            </g>
            <path d="M65.0487615,16.4399764 C75.5958017,12.1660563 87.617882,17.2816564 91.8716421,27.8421367 C96.7940422,39.9885369 95.2282822,76.2530178 95.0149222,76.5503778 C94.6974022,77.0644578 58.6966813,55.7519773 54.1086012,44.380057 C49.8279611,33.8212568 54.4899612,20.6970965 65.0487615,16.4399764" id="Fill-4" fill="#FEFEFE" fill-rule="nonzero"></path>
            <path d="M131.175915,16.4399764 C120.637275,12.1660563 108.620234,17.2816564 104.359754,27.8421367 C99.4457543,39.9885369 100.994714,76.2530178 101.213114,76.5503778 C101.535674,77.0644578 137.544795,55.7519773 142.134555,44.380057 C146.401755,33.8212568 141.731355,20.6970965 131.175915,16.4399764" id="Fill-6" fill="#FEFEFE" fill-rule="nonzero"></path>
            <path d="M25.9101366,54.4197373 C17.9586964,54.4197373 10.2693362,55.5570973 2.98821607,57.6839773 L2.98821607,158.67718 L104.082218,158.67718 C106.193978,151.434699 107.334698,143.757099 107.334698,135.824139 C107.334698,90.8589381 70.9005376,54.4197373 25.9101366,54.4197373 M38.7100569,102.879338 C27.7665366,100.834778 19.4169364,90.1012581 21.4413365,79.1526978 C23.4926165,68.1974176 34.0127768,60.9952574 44.951257,63.0213375 C57.5613373,65.3750175 86.322938,86.343098 86.472458,86.684138 C86.707658,87.191498 50.5154171,105.075098 38.7100569,102.879338 M78.3278178,139.684779 C71.2785376,147.957099 58.1409373,149.830299 49.8450971,142.794459 C41.5828569,135.758619 40.5681369,123.340059 47.6022971,115.059339 C55.6830973,105.530378 87.425018,91.3629381 87.764378,91.3947506 C88.323818,91.4553381 85.894538,130.762299 78.3278178,139.684779" id="Fill-8" fill="#FEFEFE" fill-rule="nonzero"></path>
            <g id="Fill-10-Clipped">
                <mask id="mask-4" fill="white">
                    <use xlink:href="#path-3"></use>
                </mask>
                <g id="path-3"></g>
                <path d="M156.433204,100.618058 L156.433204,161.7163 L0,161.7163 L0,-0.000504 L156.433204,-0.000504 L156.433204,100.618058 L156.433204,100.618058 Z M4.1916001,157.48942 L152.258403,157.48942 L152.258403,4.2414961 L4.1916001,4.2414961 L4.1916001,157.48942 Z" id="Fill-10" fill="#FEFEFE" fill-rule="nonzero" mask="url(#mask-4)"></path>
            </g>
        </g>
    </g>
</svg>