<?xml version="1.0" encoding="utf-8"?>
<!-- Generator: Adobe Illustrator 24.3.0, SVG Export Plug-In . SVG Version: 6.00 Build 0)  -->
<svg version="1.1" id="Capa_1" xmlns="http://www.w3.org/2000/svg" xmlns:xlink="http://www.w3.org/1999/xlink" x="0px" y="0px"
	 viewBox="0 0 856 167" style="enable-background:new 0 0 856 167;" xml:space="preserve">
<style type="text/css">
	.st0{fill:#125099;}
</style>
<g id="Page-1">
	<g id="logo_web_Azul_vf" transform="translate(0.000000, 0.000000)">
		<path id="logo" class="st0" d="M658.6,82.3c22.6,0,41,18.7,41,42c0,23.1-18.4,42-41,42c-22.6,0-41-18.9-41-42
			S635.9,82.3,658.6,82.3z M815,82.3c22.6,0,41,18.7,41,42c0,23.1-18.4,42-41,42s-41-18.9-41-42S792.3,82.3,815,82.3z M403.7,82.3
			c14.4,0.2,22.6,0.9,26.2,12.6l0.2,0.6l0.2,0.4c3.6-12.5,10.7-13.5,25.3-13.5h19.1v81.2h-19.1v-62.1c-6.5-1.4-15.6,0.8-15.9,15.4
			l0,0.6v46.3h-20.2v-46.3c0-14.9-9-17.4-15.6-16.1l-0.3,0.1v62.1h-19.1V82.3H403.7z M621.5,82.3v17.3h-22.8v63.9h-19.1V99.5h-25.1
			V82.3H621.5z M725.8,82.3v0.2c1.1-0.2,2.1-0.2,3.4-0.2c22.1,0,40.1,18.2,39.9,40.6c0,22.4-18,40.6-40.1,40.6
			c-0.8,0-1.7-0.1-2.6-0.2l-0.8,0l-19.1,0.2V82.3H725.8z M549.1,82.3v81.2H530v-21.5h-21.8v21.5h-19.6v-39.5
			c0-20.6,14.7-41.2,38.9-41.7l0.7,0H549.1z M301.2,82.3v81.2h-19.1v-21.5h-21.8v21.5h-19.6v-39.5c0-20.6,14.7-41.2,38.9-41.7l0.7,0
			H301.2z M238.3,82.1v19.2h-40.1V115h31.2v18.7h-31.2v29.7h-20V82.1H238.3z M314.6,82.3h20.7c9.1,0,14.4,0.2,21.8,2.8
			c11.1,4.1,18,12.8,18,24.9c0,14.4-4.6,19.9-8,23.9c4.2,3.1,7,6.6,7.1,16.9l0,0.7v11.9H356v-8.9c0-6.1-3.8-12.5-10.9-12.8l-0.5,0
			h-11.2v21.7h-18.7V82.3z M158,0v163.5H0V0H158z M27.8,53.6c-7.6,0-15,1-22,3L4.6,57v102H107c2.1-7.3,3.2-15.1,3.2-23.1
			C110.4,90.5,73.5,53.6,27.8,53.6z M90.4,91.2L90.4,91.2c0.7-0.2-1.8,39.5-9.4,48.6c-7.1,8.4-20.5,10.3-28.9,3.2
			c-8.4-7.1-9.5-19.6-2.3-28c3.4-4,10.9-8.8,18.5-13l1.2-0.7C79.7,95.7,89.9,91.2,90.4,91.2z M658.6,103.1c-11.1,0-20.2,9.4-20.2,21
			s9.1,21,20.2,21c11.2,0,20.2-9.3,20.2-21C678.7,112.5,669.6,103.1,658.6,103.1z M815,103.1c-11.1,0-20.2,9.4-20.2,21
			s9.1,21,20.2,21s20.2-9.3,20.2-21C835.1,112.5,826,103.1,815,103.1z M729.2,101.1c-0.9,0-1.8,0.1-2.7,0.3l-0.7,0.1v43.1
			c1.1,0,2.1,0.2,3.4,0.2c11.9,0,21.8-9.8,21.9-21.7C751.1,110.9,741.3,101.1,729.2,101.1z M530,100.8h-1.8
			c-10,0-19.3,6.5-19.6,16.4l0,0.5v7.5H530V100.8z M282.1,100.8h-1.8c-10,0-19.3,6.5-19.6,16.4l0,0.5v7.5h21.4V100.8z M341.5,100.6
			h-8.2v24.6h9.1c8.4,0,13.9-4.5,13.9-12.3C356.3,106.8,351.9,100.6,341.5,100.6z M47.3,62.1C60.1,64.5,89.2,85.6,89.3,86
			c0.2,0.7-36.6,18.7-48.5,16.6c-11.1-2.1-19.6-13-17.5-24S36,60.2,47.3,62.1z M65.6,16.6C54.9,21,50.1,34.2,54.6,44.9
			c4.6,11.6,41,33.1,41.4,32.6c0,0,0-0.1,0-0.2l0-0.2c0.1-1.6,0.3-6.7,0.3-13.3l0-1.2c0-3.3-0.1-7-0.2-10.7l-0.1-1.4
			c0-0.2,0-0.5,0-0.7L96,48.4c-0.5-8-1.4-15.7-3.2-20.2C88.5,17.4,76.3,12.3,65.6,16.6z M105.4,28.1c-5,12.3-3.4,49-3.2,49.3
			c0.2,0.3,9.9-5.3,20-12.4l1.1-0.7c0.7-0.5,1.4-1,2.1-1.5l1.2-0.9c7.9-5.9,15.1-12.3,17-17.1c4.3-10.7-0.4-23.9-11.1-28.3
			C121.8,12.3,109.7,17.4,105.4,28.1z"/>
	</g>
</g>
</svg>
