<?xml version="1.0" encoding="utf-8"?>
<!-- Generator: Adobe Illustrator 24.3.0, SVG Export Plug-In . SVG Version: 6.00 Build 0)  -->
<svg version="1.1" id="Capa_1" xmlns="http://www.w3.org/2000/svg" xmlns:xlink="http://www.w3.org/1999/xlink" x="0px" y="0px"
	 viewBox="0 0 142 142" style="enable-background:new 0 0 142 142;" xml:space="preserve">
<style type="text/css">
	.st0{fill-rule:evenodd;clip-rule:evenodd;fill:#125099;}
</style>
<path class="st0" d="M0,71c0-28.4,0-42.5,6.8-52.8c3-4.6,6.9-8.5,11.5-11.5C28.5,0,42.6,0,71,0s42.5,0,52.8,6.8
	c4.6,3,8.5,6.9,11.5,11.5C142,28.5,142,42.6,142,71s0,42.5-6.8,52.8c-3,4.6-6.9,8.5-11.5,11.5C113.5,142,99.4,142,71,142
	s-42.5,0-52.8-6.8c-4.6-3-8.5-6.9-11.5-11.5C0,113.5,0,99.4,0,71z M107.8,71c0,20.3-16.5,36.8-36.8,36.8
	c-20.3,0-36.8-16.5-36.8-36.8S50.7,34.2,71,34.2C91.3,34.2,107.8,50.7,107.8,71z M71,95.3c13.4,0,24.3-10.9,24.3-24.3
	S84.4,46.7,71,46.7c-13.4,0-24.3,10.9-24.3,24.3S57.6,95.3,71,95.3z M109.2,41c4.8,0,8.6-3.9,8.6-8.6c0-4.8-3.9-8.6-8.6-8.6
	c-4.8,0-8.6,3.9-8.6,8.6C100.6,37.2,104.4,41,109.2,41z"/>
</svg>
