<?xml version="1.0" encoding="utf-8"?>
<!-- Generator: Adobe Illustrator 24.3.0, SVG Export Plug-In . SVG Version: 6.00 Build 0)  -->
<svg version="1.1" id="Capa_1" xmlns="http://www.w3.org/2000/svg" xmlns:xlink="http://www.w3.org/1999/xlink" x="0px" y="0px"
	 viewBox="0 0 142 142" style="enable-background:new 0 0 142 142;" xml:space="preserve">
<style type="text/css">
	.st0{fill:#125099;}
</style>
<path class="st0" d="M127.5,42.5c0.1,1.3,0.1,2.5,0.1,3.8c0,38.5-29.3,82.9-82.9,82.9v0c-15.8,0-31.3-4.5-44.7-13.1
	c2.3,0.3,4.6,0.4,6.9,0.4c13.1,0,25.9-4.4,36.2-12.5c-12.5-0.2-23.4-8.4-27.2-20.2c4.4,0.8,8.9,0.7,13.2-0.5
	C15.5,80.6,5.7,68.6,5.7,54.7c0-0.1,0-0.2,0-0.4c4,2.3,8.6,3.5,13.2,3.6c-12.8-8.6-16.7-25.6-9-38.9c14.8,18.2,36.6,29.3,60,30.4
	c-2.3-10.1,0.9-20.7,8.4-27.8c11.7-11,30.2-10.5,41.2,1.3c6.5-1.3,12.8-3.7,18.5-7.1c-2.2,6.7-6.7,12.5-12.8,16.1
	c5.8-0.7,11.4-2.2,16.7-4.6C138.1,33.3,133.2,38.4,127.5,42.5z"/>
</svg>
