<svg width="856" height="167" viewBox="0 0 856 167" fill="none" xmlns="http://www.w3.org/2000/svg">
<g clip-path="url(#clip0_36_191)">
<rect width="157" height="162" fill="white"/>
<path d="M658.585 82.2631C681.233 82.2631 699.602 100.959 699.602 124.285C699.602 147.433 681.233 166.307 658.585 166.307C635.937 166.307 617.568 147.433 617.568 124.285C617.568 101.137 635.937 82.2631 658.585 82.2631ZM814.983 82.2631C837.632 82.2631 856 100.959 856 124.285C856 147.433 837.632 166.307 814.983 166.307C792.335 166.307 773.967 147.433 773.967 124.285C773.967 101.137 792.335 82.2631 814.983 82.2631ZM403.747 82.2631C418.145 82.4384 426.319 83.1316 429.972 94.8806L430.14 95.4395L430.318 95.7956C433.885 83.3315 441.018 82.2631 455.642 82.2631H474.723V163.458H455.642V101.315C449.135 99.9107 440.027 102.142 439.775 116.718L439.77 117.341V163.636H419.618V117.341C419.618 102.416 410.601 99.9577 404.023 101.258L403.747 101.315V163.458H384.665V82.2631H403.747ZM621.492 82.2631V99.5348H598.665V163.458H579.583V99.5348H554.438V82.2631H621.492ZM725.817 82.2631V82.4412C726.887 82.2631 727.957 82.2631 729.205 82.2631C751.318 82.2631 769.33 100.425 769.152 122.861C769.152 145.296 751.14 163.458 729.027 163.458C728.224 163.458 727.321 163.358 726.469 163.308L725.638 163.28L706.557 163.458V82.2631H725.817ZM549.088 82.2631V163.458H530.007V141.913H508.25V163.458H488.633V123.929C488.633 103.304 503.315 82.6798 527.488 82.2693L528.223 82.2631H549.088ZM301.205 82.2631V163.458H282.123V141.913H260.367V163.458H240.75V123.929C240.75 103.304 255.432 82.6798 279.605 82.2693L280.34 82.2631H301.205ZM238.253 82.0851V101.315H198.128V115.026H229.337V133.722H198.128V163.458H178.155V82.0851H238.253ZM314.58 82.2631H335.249C344.371 82.275 349.683 82.4469 357.023 85.1121C368.08 89.2074 375.035 97.9323 375.035 110.04C375.035 124.463 370.398 129.983 367.01 133.9C371.199 137.037 374.021 140.515 374.139 150.845L374.143 151.528V163.458H355.953V154.555C355.953 148.453 352.192 142.009 345.003 141.743L344.54 141.735H333.305V163.458H314.58V82.2631ZM158.003 0V163.458H0V0H158.003ZM27.82 53.5958C20.2408 53.5958 12.8207 54.5487 5.86017 56.6046L4.63667 56.9789V159.007H107C109.14 151.706 110.211 143.872 110.211 135.859C110.388 90.454 73.4733 53.5958 27.82 53.5958ZM90.3951 91.1651L90.415 91.1661C91.1283 90.988 88.6317 130.695 80.9633 139.776C73.83 148.145 60.455 150.104 52.0733 142.981C43.6917 135.859 42.6217 123.395 49.755 115.026C53.1433 111.054 60.6086 106.263 68.2299 102.019L69.434 101.353C79.6876 95.7297 89.8505 91.2259 90.3951 91.1651ZM658.585 103.096C647.528 103.096 638.433 112.533 638.433 124.107C638.433 135.681 647.528 145.118 658.585 145.118C669.82 145.118 678.737 135.859 678.737 124.107C678.737 112.533 669.642 103.096 658.585 103.096ZM814.983 103.096C803.927 103.096 794.832 112.533 794.832 124.107C794.832 135.681 803.927 145.118 814.983 145.118C826.04 145.118 835.135 135.859 835.135 124.107C835.135 112.533 826.04 103.096 814.983 103.096ZM729.205 101.137C728.349 101.137 727.379 101.251 726.477 101.388L725.817 101.493V144.584C726.887 144.584 727.957 144.762 729.205 144.762C741.153 144.762 750.962 134.969 751.14 123.039C751.14 110.931 741.332 101.137 729.205 101.137ZM530.007 100.781H528.223C518.225 100.781 508.917 107.327 508.614 117.2L508.607 117.697V125.175H530.007V100.781ZM282.123 100.781H280.34C270.342 100.781 261.033 107.327 260.731 117.2L260.723 117.697V125.175H282.123V100.781ZM341.508 100.603H333.305V125.175H342.4C350.782 125.175 356.31 120.724 356.31 112.889C356.31 106.835 351.852 100.603 341.508 100.603ZM47.2583 62.1424C60.0983 64.4572 89.1667 85.6462 89.3463 86.0023C89.5233 86.7146 52.7867 104.699 40.8383 102.562C29.7817 100.425 21.2217 89.5635 23.3617 78.5239C25.5017 67.4842 36.0233 60.1838 47.2583 62.1424ZM65.6267 16.5595C54.9267 21.011 50.1117 34.1873 54.57 44.8709C59.2067 56.4447 95.5867 77.9899 95.9433 77.4557C95.9508 77.4409 95.9607 77.363 95.9725 77.2264L95.9915 76.9781C96.1 75.4249 96.3112 70.2574 96.328 63.7244L96.3288 62.484C96.3245 59.1365 96.2669 55.4828 96.1189 51.804L96.0591 50.4238C96.0484 50.1937 96.0373 49.9637 96.0259 49.7338L95.9525 48.3562C95.4972 40.3344 94.5538 32.6126 92.7333 28.1333C88.4533 17.4498 76.3267 12.2861 65.6267 16.5595ZM105.395 28.1333C100.402 40.4194 102.007 77.0996 102.185 77.4557C102.369 77.7312 112.134 72.1344 122.184 65.0615L123.243 64.3117C123.949 63.8085 124.655 63.2987 125.357 62.784L126.518 61.9263C134.42 56.0376 141.657 49.6162 143.558 44.8709C147.838 34.1873 143.202 21.011 132.502 16.5595C121.802 12.2861 109.675 17.4498 105.395 28.1333Z" fill="#418FDE"/>
</g>
<defs>
<clipPath id="clip0_36_191">
<rect width="856" height="167" fill="white"/>
</clipPath>
</defs>
</svg>
