<?xml version="1.0" encoding="utf-8"?>
<!-- Generator: Adobe Illustrator 24.3.0, SVG Export Plug-In . SVG Version: 6.00 Build 0)  -->
<svg version="1.1" id="Capa_1" xmlns="http://www.w3.org/2000/svg" xmlns:xlink="http://www.w3.org/1999/xlink" x="0px" y="0px"
	 viewBox="0 0 158 163.5" style="enable-background:new 0 0 158 163.5;" xml:space="preserve">
<style type="text/css">
	.st0{fill:#FFFFFF;}
	.st1{fill:#125099;}
</style>
<g>
	<path class="st0" d="M96,77.5c0,0,0-0.1,0-0.2v-0.2c0.1-1.6,0.3-6.7,0.3-13.3v-1.2c0-3.3-0.1-7-0.2-10.7L96,50.5c0-0.2,0-0.5,0-0.7
		v-1.4c-0.5-8-1.4-15.7-3.2-20.2c-4.3-10.8-16.5-15.9-27.2-11.6c-10.7,4.4-15.5,17.6-11,28.3C59.2,56.5,95.6,78,96,77.5z"/>
	<path class="st0" d="M122.2,65l1.1-0.7c0.7-0.5,1.4-1,2.1-1.5l1.2-0.9c7.9-5.9,15.1-12.3,17-17.1c4.3-10.7-0.4-23.9-11.1-28.3
		c-10.7-4.2-22.8,0.9-27.1,11.6c-5,12.3-3.4,49-3.2,49.3C102.4,77.7,112.1,72.1,122.2,65z"/>
	<path class="st1" d="M47.3,62.1c-11.3-1.9-21.9,5.5-24,16.5c-2.1,11,6.4,21.9,17.5,24c11.9,2.1,48.7-15.9,48.5-16.6
		C89.2,85.6,60.1,64.5,47.3,62.1z"/>
	<path class="st1" d="M5,56.9l0.8-0.3c7-2,14.4-3,22-3c45.7,0,82.6,36.9,82.4,82.3c0,7.8-1.1,15.4-3.1,22.6H153V5H5V56.9z
		 M105.4,28.1c4.3-10.7,16.4-15.8,27.1-11.6c10.7,4.4,15.4,17.6,11.1,28.3c-1.9,4.8-9.1,11.2-17,17.1l-1.2,0.9
		c-0.7,0.5-1.4,1-2.1,1.5l-1.1,0.7c-10.1,7.1-19.8,12.7-20,12.4C102,77.1,100.4,40.4,105.4,28.1z M65.6,16.6
		c10.7-4.3,22.9,0.8,27.2,11.6c1.8,4.5,2.7,12.2,3.2,20.2v1.4c0,0.2,0,0.5,0,0.7l0.1,1.4c0.1,3.7,0.2,7.4,0.2,10.7v1.2
		c0,6.6-0.2,11.7-0.3,13.3v0.2c0,0.1,0,0.2,0,0.2c-0.4,0.5-36.8-21-41.4-32.6C50.1,34.2,54.9,21,65.6,16.6z"/>
	<path class="st1" d="M68.3,102c-7.6,4.2-15.1,9-18.5,13c-7.2,8.4-6.1,20.9,2.3,28c8.4,7.1,21.8,5.2,28.9-3.2
		c7.6-9.1,10.1-48.8,9.4-48.6c-0.5,0-10.7,4.5-20.9,10.1L68.3,102z"/>
	<path class="st0" d="M0,0v163.5h158V0H0z M40.8,102.6c-11.1-2.1-19.6-13-17.5-24c2.1-11,12.7-18.4,24-16.5
		c12.8,2.4,41.9,23.5,42,23.9C89.5,86.7,52.7,104.7,40.8,102.6z M90.4,91.2c0.7-0.2-1.8,39.5-9.4,48.6c-7.1,8.4-20.5,10.3-28.9,3.2
		c-8.4-7.1-9.5-19.6-2.3-28c3.4-4,10.9-8.8,18.5-13l1.2-0.7C79.7,95.7,89.9,91.2,90.4,91.2z M153,158.5h-45.9
		c2-7.2,3.1-14.8,3.1-22.6c0.2-45.4-36.7-82.3-82.4-82.3c-7.6,0-15,1-22,3L5,56.9V5h148V158.5z"/>
</g>
</svg>
