<?xml version="1.0" encoding="utf-8"?>
<!-- Generator: Adobe Illustrator 24.3.0, SVG Export Plug-In . SVG Version: 6.00 Build 0)  -->
<svg version="1.1" id="Capa_1" xmlns="http://www.w3.org/2000/svg" xmlns:xlink="http://www.w3.org/1999/xlink" x="0px" y="0px"
	 viewBox="0 0 142 142" style="enable-background:new 0 0 142 142;" xml:space="preserve">
<style type="text/css">
	.st0{fill:#125099;}
</style>
<path class="st0" d="M142,10.4v121.1c0,2.8-1.1,5.4-3.1,7.4c-2,2-4.6,3.1-7.4,3.1H10.4c-2.8,0-5.4-1.1-7.4-3.1c-2-2-3.1-4.6-3.1-7.4
	V10.4C0,7.7,1.1,5,3.1,3.1C5,1.1,7.7,0,10.4,0h121.1c2.8,0,5.4,1.1,7.4,3.1C140.9,5,142,7.7,142,10.4L142,10.4z M41.8,54.3H20.9
	v66.8h20.9V54.3z M43.6,31.3c0-1.6-0.3-3.1-0.9-4.6c-0.6-1.5-1.5-2.8-2.6-3.9c-1.1-1.1-2.4-2-3.9-2.6c-1.5-0.6-3-0.9-4.6-0.9h-0.4
	c-3.2,0-6.3,1.3-8.6,3.5s-3.5,5.4-3.5,8.6c0,3.2,1.3,6.3,3.5,8.6s5.4,3.5,8.6,3.5l0,0c1.6,0,3.2-0.2,4.6-0.8c1.5-0.6,2.8-1.4,4-2.5
	c1.1-1.1,2.1-2.4,2.7-3.8c0.6-1.4,1-3,1-4.6V31.3z M121.1,80.5c0-20.1-12.8-27.9-25.5-27.9c-4.2-0.2-8.3,0.7-12,2.6
	c-3.7,1.9-6.9,4.7-9.1,8.2h-0.6v-9.1H54.3v66.8h20.9V85.6c-0.3-3.6,0.8-7.3,3.2-10.1c2.3-2.8,5.7-4.6,9.3-4.9h0.8
	c6.6,0,11.6,4.2,11.6,14.7v35.8H121L121.1,80.5z"/>
</svg>
