<svg xmlns="http://www.w3.org/2000/svg" width="35.971" height="34.886" viewBox="0 0 35.971 34.886">
  <g id="Grupo_1516" data-name="Grupo 1516" transform="translate(-3895.967 -1357.228)">
    <path id="Trazado_2228" data-name="Trazado 2228" d="M3904.448,1360.815s1.009-3.1,5.29-2.332c.348-.452,3.932-2.192,6.09-.591a5.235,5.235,0,0,1,5.846,1.74c.87.069,5.046.452,4.8,3.584.627.418,4.107,1.427,3.2,4.7.1.035,2.61,1.114,1.566,5.846a4.444,4.444,0,0,1-.766,5.673,4.5,4.5,0,0,1-2.575,5.08,4.211,4.211,0,0,1-4.245,4.107c0,.7-1.706,2.645-4.455,2.018-.174.592-3.619,2.471-5.916.8-.243.313-3.967,1.009-5.6-1.253-.418.174-4.316.1-5.325-3.063-.8-.139-3.549-1.879-3.584-4.593-.487.035-2.923-3.1-1.775-5.29.174-.522-2.575-2.888.244-5.95-.488-.731-1.01-3.654,2.192-5.36C3899.507,1364.782,3900.655,1360.815,3904.448,1360.815Z" fill="#272425"/>
    <circle id="Elipse_64" data-name="Elipse 64" cx="14.72" cy="14.72" r="14.72" transform="translate(3899.232 1360.441)" fill="#fff"/>
  </g>
  <g id="Grupo_1518" data-name="Grupo 1518" transform="translate(-3895.967 -1357.228)">
    <g id="Grupo_1517" data-name="Grupo 1517">
      <path id="Trazado_2229" data-name="Trazado 2229" d="M3913.952,1365.133a7.267,7.267,0,0,0-5.816,11.621l5.368,7.23c.014.017.034.024.049.04a.541.541,0,0,0,.847-.04c1.546-2.063,4.379-5.915,5.469-7.368v0l.007-.009a7.265,7.265,0,0,0-5.924-11.472Zm0,11.185a3.919,3.919,0,1,1,3.92-3.92A3.929,3.929,0,0,1,3913.952,1376.318Z" fill="#272425"/>
    </g>
  </g>
</svg>
