<svg xmlns="http://www.w3.org/2000/svg" width="36.426" height="35.327" viewBox="0 0 36.426 35.327">
  <g id="Grupo_1522" data-name="Grupo 1522" transform="translate(-3894.901 -1317.083)">
    <g id="Grupo_1521" data-name="Grupo 1521">
      <path id="Trazado_2230" data-name="Trazado 2230" d="M3903.49,1320.715s1.022-3.136,5.356-2.361c.353-.458,3.982-2.22,6.167-.6a5.3,5.3,0,0,1,5.92,1.762c.881.071,5.11.458,4.863,3.63.634.423,4.158,1.445,3.242,4.757.106.035,2.643,1.128,1.586,5.92a4.5,4.5,0,0,1-.775,5.744,4.564,4.564,0,0,1-2.608,5.145,4.264,4.264,0,0,1-4.3,4.158c0,.705-1.727,2.678-4.511,2.044-.176.6-3.665,2.5-5.991.811-.246.317-4.017,1.022-5.673-1.269-.423.176-4.37.106-5.392-3.1-.81-.141-3.594-1.9-3.629-4.652-.494.036-2.96-3.136-1.8-5.356.176-.528-2.608-2.925.246-6.026-.493-.74-1.022-3.7,2.22-5.427C3898.486,1324.733,3899.649,1320.715,3903.49,1320.715Z" fill="#272425"/>
      <circle id="Elipse_65" data-name="Elipse 65" cx="14.906" cy="14.906" r="14.906" transform="translate(3898.208 1320.337)" fill="#fff"/>
    </g>
    <path id="Trazado_2231" data-name="Trazado 2231" d="M3910.951,1343.327h3.455v-8.653h2.411l.257-2.9h-2.668v-1.65c0-.683.138-.953.8-.953h1.87v-3.007h-2.392c-2.572,0-3.731,1.133-3.731,3.3v2.31h-1.8v2.934h1.8Z" fill="#272425"/>
  </g>
</svg>
