<svg xmlns="http://www.w3.org/2000/svg" width="36.44" height="35.342" viewBox="0 0 36.44 35.342">
  <g id="Grupo_1534" data-name="Grupo 1534" transform="translate(-3934.534 -1316.141)">
    <g id="Grupo_1527" data-name="Grupo 1527">
      <g id="Grupo_1525" data-name="Grupo 1525">
        <path id="Trazado_2234" data-name="Trazado 2234" d="M3943.126,1319.775s1.022-3.137,5.358-2.362c.353-.458,3.984-2.221,6.17-.6a5.3,5.3,0,0,1,5.922,1.763c.882.07,5.112.458,4.865,3.631.635.423,4.16,1.445,3.244,4.759.1.035,2.644,1.128,1.586,5.923a4.5,4.5,0,0,1-.776,5.746,4.565,4.565,0,0,1-2.608,5.147,4.266,4.266,0,0,1-4.3,4.16c0,.7-1.728,2.679-4.513,2.045-.176.6-3.666,2.5-5.993.811-.247.317-4.019,1.022-5.676-1.27-.423.177-4.371.106-5.393-3.1-.811-.141-3.6-1.9-3.632-4.653-.493.035-2.961-3.138-1.8-5.359.177-.529-2.608-2.926.247-6.028-.493-.741-1.022-3.7,2.221-5.429C3938.12,1323.794,3939.283,1319.775,3943.126,1319.775Z" fill="#272425"/>
      </g>
      <g id="Grupo_1526" data-name="Grupo 1526">
        <circle id="Elipse_67" data-name="Elipse 67" cx="14.912" cy="14.912" r="14.912" transform="translate(3937.842 1319.397)" fill="#fff"/>
      </g>
    </g>
    <g id="Grupo_1533" data-name="Grupo 1533">
      <g id="Grupo_1529" data-name="Grupo 1529">
        <g id="Grupo_1528" data-name="Grupo 1528">
          <path id="Trazado_2235" data-name="Trazado 2235" d="M3952.754,1327.429c2.079,0,2.325.008,3.146.045a4.337,4.337,0,0,1,1.446.268,2.586,2.586,0,0,1,1.478,1.478,4.321,4.321,0,0,1,.268,1.446c.037.821.046,1.067.046,3.146s-.009,2.326-.046,3.147a4.321,4.321,0,0,1-.268,1.446,2.586,2.586,0,0,1-1.478,1.478,4.337,4.337,0,0,1-1.446.268c-.821.037-1.067.045-3.146.045s-2.326-.008-3.147-.045a4.328,4.328,0,0,1-1.445-.268,2.578,2.578,0,0,1-1.478-1.478,4.283,4.283,0,0,1-.268-1.446c-.038-.821-.046-1.067-.046-3.147s.008-2.325.046-3.146a4.283,4.283,0,0,1,.268-1.446,2.578,2.578,0,0,1,1.478-1.478,4.328,4.328,0,0,1,1.445-.268c.821-.037,1.068-.045,3.147-.045m0-1.4c-2.115,0-2.38.009-3.211.047a5.709,5.709,0,0,0-1.89.362,3.98,3.98,0,0,0-2.277,2.277,5.733,5.733,0,0,0-.362,1.89c-.038.831-.047,1.1-.047,3.21s.009,2.38.047,3.211a5.733,5.733,0,0,0,.362,1.89,3.98,3.98,0,0,0,2.277,2.277,5.709,5.709,0,0,0,1.89.362c.831.038,1.1.047,3.211.047s2.38-.009,3.21-.047a5.7,5.7,0,0,0,1.89-.362,3.987,3.987,0,0,0,2.278-2.277,5.728,5.728,0,0,0,.362-1.89c.037-.831.046-1.1.046-3.211s-.009-2.379-.046-3.21a5.728,5.728,0,0,0-.362-1.89,3.987,3.987,0,0,0-2.278-2.277,5.7,5.7,0,0,0-1.89-.362c-.83-.038-1.1-.047-3.21-.047" fill="#272425"/>
          <path id="Trazado_2236" data-name="Trazado 2236" d="M3952.754,1341.9c-2.1,0-2.378-.01-3.225-.047a6.087,6.087,0,0,1-1.983-.383,4.147,4.147,0,0,1-1.483-.965,4.088,4.088,0,0,1-.965-1.483,6.074,6.074,0,0,1-.383-1.985c-.037-.845-.047-1.123-.047-3.223s.01-2.377.047-3.225a6.03,6.03,0,0,1,.383-1.983,4.254,4.254,0,0,1,2.448-2.447,5.941,5.941,0,0,1,1.983-.383c.847-.04,1.137-.047,3.225-.047s2.377.007,3.225.047a5.984,5.984,0,0,1,1.985.383,4.257,4.257,0,0,1,2.446,2.447,6.081,6.081,0,0,1,.383,1.983c.037.848.046,1.126.046,3.225s-.009,2.378-.046,3.223a6.125,6.125,0,0,1-.383,1.985,4.064,4.064,0,0,1-.967,1.483,4.132,4.132,0,0,1-1.479.965,6.117,6.117,0,0,1-1.985.383C3955.131,1341.889,3954.853,1341.9,3952.754,1341.9Zm0-15.573c-2.074,0-2.361.007-3.2.046a5.45,5.45,0,0,0-1.794.341,3.711,3.711,0,0,0-2.109,2.107,5.557,5.557,0,0,0-.341,1.8c-.037.834-.047,1.112-.047,3.2s.01,2.364.047,3.2a5.586,5.586,0,0,0,.341,1.8,3.518,3.518,0,0,0,.831,1.272,3.562,3.562,0,0,0,1.278.834,5.563,5.563,0,0,0,1.794.341c.833.037,1.111.047,3.2.047s2.363-.01,3.2-.047a5.593,5.593,0,0,0,1.8-.341,3.543,3.543,0,0,0,1.273-.834,3.5,3.5,0,0,0,.834-1.272,5.593,5.593,0,0,0,.341-1.8c.037-.831.046-1.109.046-3.2s-.009-2.363-.046-3.2a5.564,5.564,0,0,0-.341-1.8,3.715,3.715,0,0,0-2.107-2.107,5.489,5.489,0,0,0-1.8-.341C3955.115,1326.333,3954.828,1326.326,3952.754,1326.326Zm0,14.169c-2.107,0-2.35-.007-3.16-.044a4.611,4.611,0,0,1-1.539-.29,2.848,2.848,0,0,1-1.649-1.649,4.607,4.607,0,0,1-.29-1.539c-.037-.813-.044-1.055-.044-3.16s.007-2.349.044-3.162a4.613,4.613,0,0,1,.29-1.539,2.86,2.86,0,0,1,1.649-1.647,4.523,4.523,0,0,1,1.539-.289c.834-.038,1.109-.047,3.16-.047s2.326.009,3.16.047a4.554,4.554,0,0,1,1.541.289,2.842,2.842,0,0,1,1.647,1.647,4.594,4.594,0,0,1,.289,1.539c.038.813.045,1.058.045,3.162s-.007,2.347-.045,3.16a4.589,4.589,0,0,1-.289,1.539,2.852,2.852,0,0,1-1.647,1.649,4.637,4.637,0,0,1-1.541.29C3955.1,1340.488,3954.86,1340.495,3952.754,1340.495Zm0-12.768c-2.114,0-2.331.009-3.132.047a3.964,3.964,0,0,0-1.35.247,2.066,2.066,0,0,0-.794.516,2.127,2.127,0,0,0-.516.79,4.042,4.042,0,0,0-.248,1.352c-.037.8-.044,1.042-.044,3.134s.007,2.333.044,3.132a4.042,4.042,0,0,0,.248,1.352,2.062,2.062,0,0,0,.516.79,2.093,2.093,0,0,0,.794.518,4.087,4.087,0,0,0,1.35.248c.8.037,1.039.044,3.132.044s2.335-.007,3.132-.044a4.114,4.114,0,0,0,1.352-.248,2.1,2.1,0,0,0,.792-.518,2.072,2.072,0,0,0,.516-.79,4.016,4.016,0,0,0,.247-1.352c.038-.8.045-1.041.045-3.132s-.007-2.335-.045-3.134a4.016,4.016,0,0,0-.247-1.352,2.152,2.152,0,0,0-.516-.792,2.092,2.092,0,0,0-.792-.514,4,4,0,0,0-1.352-.247C3955.085,1327.736,3954.867,1327.727,3952.754,1327.727Z" fill="#222221"/>
        </g>
      </g>
      <g id="Grupo_1531" data-name="Grupo 1531">
        <g id="Grupo_1530" data-name="Grupo 1530">
          <path id="Trazado_2237" data-name="Trazado 2237" d="M3952.754,1329.814a4,4,0,1,0,4,4,4,4,0,0,0-4-4m0,6.594a2.6,2.6,0,1,1,2.6-2.6,2.6,2.6,0,0,1-2.6,2.6" fill="#272425"/>
          <path id="Trazado_2238" data-name="Trazado 2238" d="M3952.754,1338.111a4.3,4.3,0,1,1,4.3-4.3A4.3,4.3,0,0,1,3952.754,1338.111Zm0-8a3.7,3.7,0,1,0,3.7,3.7A3.7,3.7,0,0,0,3952.754,1330.114Zm0,6.593a2.9,2.9,0,1,1,2.893-2.894A2.9,2.9,0,0,1,3952.754,1336.707Zm0-5.192a2.3,2.3,0,1,0,2.3,2.3A2.3,2.3,0,0,0,3952.754,1331.515Z" fill="#222221"/>
        </g>
      </g>
      <g id="Grupo_1532" data-name="Grupo 1532">
        <path id="Trazado_2239" data-name="Trazado 2239" d="M3957.845,1329.656a.934.934,0,1,1-.935-.934.935.935,0,0,1,.935.934" fill="#272425"/>
        <path id="Trazado_2240" data-name="Trazado 2240" d="M3956.911,1330.889a1.233,1.233,0,1,1,1.233-1.233A1.234,1.234,0,0,1,3956.911,1330.889Zm0-1.868a.635.635,0,1,0,.635.635A.636.636,0,0,0,3956.911,1329.021Z" fill="#222221"/>
      </g>
    </g>
  </g>
</svg>
