<svg xmlns="http://www.w3.org/2000/svg" width="36.425" height="35.327" viewBox="0 0 36.425 35.327">
  <g id="Grupo_1524" data-name="Grupo 1524" transform="translate(-3975.574 -1316.71)">
    <g id="Grupo_1523" data-name="Grupo 1523">
      <path id="Trazado_2232" data-name="Trazado 2232" d="M3984.163,1320.342s1.022-3.136,5.357-2.361c.352-.458,3.982-2.22,6.166-.6a5.3,5.3,0,0,1,5.921,1.762c.881.071,5.109.458,4.863,3.63.634.423,4.158,1.445,3.242,4.757.1.035,2.642,1.128,1.585,5.92a4.5,4.5,0,0,1-.775,5.744,4.563,4.563,0,0,1-2.608,5.145,4.264,4.264,0,0,1-4.3,4.158c0,.7-1.727,2.679-4.51,2.044-.177.6-3.665,2.5-5.991.811-.247.317-4.017,1.022-5.674-1.269-.422.176-4.369.106-5.391-3.1-.811-.141-3.594-1.9-3.63-4.651-.493.035-2.96-3.137-1.8-5.357.176-.528-2.608-2.925.247-6.026-.494-.74-1.022-3.7,2.22-5.426C3979.159,1324.36,3980.322,1320.342,3984.163,1320.342Z" fill="#272425"/>
      <circle id="Elipse_66" data-name="Elipse 66" cx="14.906" cy="14.906" r="14.906" transform="translate(3978.881 1319.964)" fill="#fff"/>
    </g>
    <path id="Trazado_2233" data-name="Trazado 2233" d="M4005.07,1328.869a2.857,2.857,0,0,0-2.009-2.022c-1.772-.478-8.877-.478-8.877-.478s-7.106,0-8.877.478a2.857,2.857,0,0,0-2.01,2.022,32.191,32.191,0,0,0,0,11.009,2.857,2.857,0,0,0,2.01,2.022c1.771.478,8.877.478,8.877.478s7.1,0,8.877-.478a2.857,2.857,0,0,0,2.009-2.022,32.142,32.142,0,0,0,0-11.009Zm-13.21,8.883v-6.757l5.939,3.379Z" fill="#272425"/>
  </g>
</svg>
