<svg width="89" height="89" viewBox="0 0 89 89" fill="none" xmlns="http://www.w3.org/2000/svg">
<path d="M88.4 44.2006C88.4 68.6006 68.6 88.4008 44.2 88.4008C19.8 88.4008 0 68.6006 0 44.2006C0 19.8006 19.8 0.000377122 44.2 0.000377122C68.6 -0.0996229 88.4 19.7006 88.4 44.2006Z" fill="white"/>
<path d="M88.4 44.2006C88.4 68.6006 68.6 88.4008 44.2 88.4008C19.8 88.4008 0 68.6006 0 44.2006C0 19.8006 19.8 0.000377122 44.2 0.000377122C68.6 -0.0996229 88.4 19.7006 88.4 44.2006Z" fill="white"/>
<path d="M44.1 38.1006C40.7 38.1006 37.9 35.3009 37.9 31.9009C37.9 28.5009 40.7 25.7007 44.1 25.7007C47.5 25.7007 50.3 28.5009 50.3 31.9009C50.3 35.3009 47.6 38.1006 44.1 38.1006ZM44.1 14.6006C34.5 14.6006 26.8 22.4009 26.8 31.9009C26.8 44.9009 44.1 64.1006 44.1 64.1006C44.1 64.1006 61.4 44.9009 61.4 31.9009C61.5 22.3009 53.7 14.6006 44.1 14.6006Z" stroke="#2E3192" stroke-miterlimit="10"/>
<path d="M57.2 49.1006H62.4L65.7 69.8008H22.5L25.9 49.1006H31" stroke="#2E3192" stroke-miterlimit="10" stroke-linecap="round"/>
</svg>
