<svg xmlns="http://www.w3.org/2000/svg" viewBox="0 0 24.67 30.81"><defs><style>.cls-1{fill:none;stroke:#478bc9;stroke-miterlimit:10;stroke-width:0.62px;}</style></defs><g id="Capa_2" data-name="Capa 2"><g id="propuestas"><path class="cls-1" d="M24,25.35H.68C.68,19.72,4,20,4,16.87v-5.5C4,6.89,6.18,3.93,9.77,3a2.58,2.58,0,0,1,5.14,0c3.58.93,5.79,3.89,5.79,8.37v5.5C20.7,20,24,19.72,24,25.35Z"/><path class="cls-1" d="M22.28,19.52a3.71,3.71,0,0,1-1.21-2.65v-5.5c0-4.46-2.12-7.6-5.83-8.66a3,3,0,0,0-5.8,0C5.72,3.78,3.6,6.92,3.6,11.37v5.5a3.74,3.74,0,0,1-1.2,2.65A7.77,7.77,0,0,0,.31,25.35a.38.38,0,0,0,.37.37H7.2a5.15,5.15,0,0,0,10.28,0H24a.37.37,0,0,0,.37-.37A7.77,7.77,0,0,0,22.28,19.52ZM12.34,29.77a4.43,4.43,0,0,1-4.41-4.05h8.81A4.43,4.43,0,0,1,12.34,29.77ZM17.12,25H1.05A6.9,6.9,0,0,1,3,20a4.45,4.45,0,0,0,1.38-3.13v-5.5c0-4.18,2-7.1,5.52-8A.36.36,0,0,0,10.13,3a2.22,2.22,0,0,1,4.41,0,.38.38,0,0,0,.27.32c3.51.9,5.52,3.82,5.52,8v5.5A4.45,4.45,0,0,0,21.71,20a6.9,6.9,0,0,1,1.91,5Z"/></g></g></svg>