<svg xmlns="http://www.w3.org/2000/svg" viewBox="0 0 38.4 31.28"><defs><style>.cls-1{fill:none;stroke:#478bc9;stroke-miterlimit:10;}</style></defs><g id="Capa_2" data-name="Capa 2"><g id="propuestas"><circle class="cls-1" cx="6.69" cy="27.02" r="3.76"/><path class="cls-1" d="M6,23.26H20.77a3.78,3.78,0,0,0,3.57-2.55L30.41,3.05A3.77,3.77,0,0,1,34,.5H38.4"/><circle class="cls-1" cx="6.69" cy="27.02" r="0.54"/><circle class="cls-1" cx="20.35" cy="27.02" r="3.76"/><circle class="cls-1" cx="20.35" cy="27.02" r="0.54"/><path class="cls-1" d="M25.1,18.51H5.32a1.48,1.48,0,0,1-1.43-1.08L.54,5.72a.91.91,0,0,1,.88-1.17H26.77"/><line class="cls-1" x1="5.14" y1="7.94" x2="28.73" y2="7.94"/><line class="cls-1" x1="7.15" y1="12.95" x2="27.01" y2="12.95"/></g></g></svg>