<svg xmlns="http://www.w3.org/2000/svg" viewBox="0 0 31.39 25.5"><defs><style>.cls-1,.cls-2{fill:none;stroke:#8fbbe5;stroke-miterlimit:10;}.cls-1{stroke-width:1.34px;}.cls-2{font-size:16.32px;stroke-width:1.34px;font-family:Arial-BoldMT, Arial;font-weight:700;}</style></defs><g id="Capa_2" data-name="Capa 2"><g id="propuestas"><path class="cls-1" d="M9.71,4.74V2.81A1.55,1.55,0,0,1,11.1,1.13H29.33a1.55,1.55,0,0,1,1.39,1.68V23a1.55,1.55,0,0,1-1.39,1.68H11.1A1.55,1.55,0,0,1,9.71,23V20.4"/><path class="cls-1" d="M9.71,19.28V23a1.68,1.68,0,0,1-1.49,1.82H2.17A1.68,1.68,0,0,1,.67,23V2.49A1.68,1.68,0,0,1,2.17.67H8.22A1.68,1.68,0,0,1,9.71,2.49V7"/><text class="cls-2" transform="translate(14.26 18.53) scale(0.82 1)">%</text></g></g></svg>