<svg xmlns="http://www.w3.org/2000/svg" viewBox="0 0 23.81 19.42"><defs><style>.cls-1{fill:none;stroke:#fff;stroke-miterlimit:10;stroke-width:1.41px;}.cls-2{font-size:12.16px;fill:#fff;font-family:Arial-BoldMT, Arial;font-weight:700;}</style></defs><g id="Capa_2" data-name="Capa 2"><g id="propuestas"><path class="cls-1" d="M7.44,3.74V2.3a1.16,1.16,0,0,1,1-1.25H22.07a1.16,1.16,0,0,1,1,1.25v15a1.16,1.16,0,0,1-1,1.25H8.48a1.16,1.16,0,0,1-1-1.25V15.41"/><path class="cls-1" d="M7.44,14.57v2.79a1.25,1.25,0,0,1-1.11,1.35H1.82A1.25,1.25,0,0,1,.71,17.36V2.06A1.25,1.25,0,0,1,1.82.71H6.33A1.24,1.24,0,0,1,7.44,2.06V5.41"/><text class="cls-2" transform="translate(10.83 14.01) scale(0.82 1)">%</text></g></g></svg>