<svg xmlns="http://www.w3.org/2000/svg" viewBox="0 0 1711.89 400.67"><defs><style>.cls-1{fill:#478bc9;}.cls-2{fill:#0c5c97;}.cls-3{fill:#a4d5f4;}.cls-4{fill:none;stroke:#0c5c97;stroke-linecap:round;stroke-linejoin:round;stroke-width:11.34px;}</style></defs><g id="Capa_2" data-name="Capa 2"><g id="propuestas"><path class="cls-1" d="M0,243.5l8.23,16.65q33.46,67.59,67.19,135C179.22,320,333.92,236.51,531.29,234.42c276.33-2.93,416,156.12,698.05,159.51,121.41,1.45,288.68-25.71,482.55-155.6L1594,0c-61.81,50.42-163.15,120-297.64,151.47C1055,208,910.44,94.23,672.22,73.07,525,60,302.23,78.78,0,243.5Z"/><path class="cls-2" d="M40,323.57q-9.12-18.37-18.23-36.78l-8.23-16.65c302.23-164.71,525-183.5,672.21-170.42C924,120.88,1068.55,234.66,1310,178.12c134.48-31.5,235.83-101.05,297.64-151.47q12.23,26.06,24.43,52.11c-59.46,49.79-159.26,117.56-299.38,148.69-46.29,10.28-128,27.66-234.56,12.88-93-12.91-122.63-38.91-257.74-67.69C799.79,164,734.41,150.08,656,145.48c-32.49-1.91-182.53-9-362.85,51.26A1003.19,1003.19,0,0,0,40,323.57Z"/><path class="cls-3" d="M55.51,354.84q-9.13-18.37-18.23-36.78L29,301.41C331.27,136.69,554,117.9,701.26,131c238.22,21.16,382.75,135,624.15,78.41,134.49-31.5,235.84-101.06,297.65-151.47Q1635.27,84,1647.49,110c-59.46,49.79-159.27,117.56-299.38,148.68-46.29,10.29-128,27.66-234.56,12.89-93-12.91-122.63-38.92-257.74-67.7-40.56-8.63-105.93-22.56-184.34-27.16-32.49-1.91-182.53-9-362.85,51.27A1003,1003,0,0,0,55.51,354.84Z"/><path class="cls-1" d="M69.31,380.53q-9.14-18.37-18.23-36.78l-8.24-16.64c302.23-164.72,525-183.51,672.22-170.43,238.22,21.16,382.75,134.94,624.15,78.4C1473.7,203.58,1575.05,134,1636.86,83.61q12.21,26.06,24.43,52.11c-59.46,49.79-159.27,117.56-299.38,148.69-46.29,10.28-128,27.66-234.56,12.88-93-12.91-122.63-38.91-257.74-67.69C829.05,221,763.68,207,685.27,202.44c-32.49-1.91-182.53-9-362.85,51.26A1003,1003,0,0,0,69.31,380.53Z"/><path class="cls-2" d="M79.26,400.67Q70.14,382.28,61,363.89L52.8,347.24C355,182.52,577.76,163.73,725,176.81c238.22,21.16,382.75,134.94,624.15,78.4,134.49-31.5,235.83-101.05,297.64-151.47q12.23,26.06,24.43,52.11c-59.46,49.79-159.26,117.56-299.38,148.69-46.29,10.28-128,27.66-234.56,12.88-93-12.91-122.63-38.91-257.74-67.69-40.55-8.64-105.93-22.56-184.33-27.16-32.49-1.91-182.53-9-362.85,51.26A1002.94,1002.94,0,0,0,79.26,400.67Z"/><path class="cls-4" d="M1689.49,192.23c-188.82,144.28-345.65,166.17-455.25,158.6-145.94-10.08-240.17-72.51-491.58-106.32a1895.55,1895.55,0,0,0-253.32-17.08"/><path class="cls-3" d="M1707.28,227.63a720.9,720.9,0,0,1-134.77,84.87,687,687,0,0,1-73.6,30.58c-25,8.75-50.38,16.59-76.16,23.05a668.06,668.06,0,0,1-78.26,14.75q-19.76,2.49-39.67,3.7t-39.83.94a530,530,0,0,1-79.35-6.76c-13.1-2.16-26.09-4.79-39-7.65s-25.77-6-38.57-9.31-25.55-6.79-38.26-10.44-25.38-7.51-37.93-11.65-25-8.54-37.42-13.18-24.67-9.42-37-14c-24.7-9.1-49.76-17.2-75.19-24S831,276.32,805.11,271.42c-13-2.45-25.93-4.79-38.91-7.11s-26-4.63-39-6.74q-39-6.36-78.32-11-78.57-9.28-157.77-11.86Q570.26,236.4,649.07,245q39.36,4.28,78.52,10.29c13,2,26.07,4.19,39.08,6.37s26,4.4,39,6.73c26,4.64,51.91,9.87,77.54,16.43s50.89,14.49,75.79,23.39c12.46,4.43,24.8,9.11,37.18,13.59s24.81,8.76,37.35,12.75,25.14,7.74,37.84,11.21,25.42,6.85,38.2,10,25.59,6.14,38.45,8.87,25.76,5.2,38.71,7.2a523.57,523.57,0,0,0,78.29,5.9q19.65,0,39.27-1.32t39.08-4a660.42,660.42,0,0,0,77.06-15.31c25.35-6.62,50.39-14.64,75.07-23.54a676.14,676.14,0,0,0,72.2-30.83,709.51,709.51,0,0,0,131.76-84.79,6.23,6.23,0,0,1,7.86,9.68Z"/></g></g></svg>