<svg xmlns="http://www.w3.org/2000/svg" xmlns:xlink="http://www.w3.org/1999/xlink" viewBox="0 0 371.61 60.28"><defs><style>.cls-1{fill:#e9e21b;}.cls-1,.cls-2{stroke:#000;stroke-miterlimit:10;stroke-width:1.57px;}.cls-2{fill:url(#Degradado_sin_nombre_141);}</style><linearGradient id="Degradado_sin_nombre_141" x1="309.92" y1="30.31" x2="369.92" y2="30.31" gradientUnits="userSpaceOnUse"><stop offset="0.39" stop-color="#e9e21b"/><stop offset="0.83" stop-color="#fff"/></linearGradient></defs><g id="Capa_2" data-name="Capa 2"><g id="propuestas"><polygon class="cls-1" points="31.69 1.77 40.96 20.56 61.69 23.57 46.69 38.19 50.23 58.84 31.69 49.09 13.15 58.84 16.69 38.19 1.69 23.57 22.42 20.56 31.69 1.77"/><polygon class="cls-1" points="108.75 1.77 118.02 20.56 138.75 23.57 123.75 38.19 127.29 58.84 108.75 49.09 90.2 58.84 93.75 38.19 78.75 23.57 99.48 20.56 108.75 1.77"/><polygon class="cls-1" points="185.81 1.77 195.08 20.56 215.81 23.57 200.81 38.19 204.35 58.84 185.81 49.09 167.26 58.84 170.8 38.19 155.8 23.57 176.53 20.56 185.81 1.77"/><polygon class="cls-1" points="262.86 1.77 272.13 20.56 292.87 23.57 277.86 38.19 281.4 58.84 262.86 49.09 244.32 58.84 247.86 38.19 232.86 23.57 253.59 20.56 262.86 1.77"/><polygon class="cls-2" points="339.92 1.77 349.19 20.56 369.92 23.57 354.92 38.19 358.46 58.84 339.92 49.09 321.38 58.84 324.92 38.19 309.92 23.57 330.65 20.56 339.92 1.77"/></g></g></svg>