<svg xmlns="http://www.w3.org/2000/svg" xmlns:xlink="http://www.w3.org/1999/xlink" viewBox="0 0 1439.62 1099.94"><defs><style>.cls-1{fill:#195ea6;}.cls-2{font-size:187.72px;font-family:ArialRoundedMTBold, Arial Rounded MT Bold;}.cls-2,.cls-5{fill:#fff;}.cls-3{letter-spacing:-0.01em;}.cls-4{fill:url(#Degradado_sin_nombre_12);}</style><linearGradient id="Degradado_sin_nombre_12" x1="1401.24" y1="548.05" x2="1401.24" y2="441.65" gradientUnits="userSpaceOnUse"><stop offset="0.17" stop-color="#1165ac"/><stop offset="0.75" stop-color="#195ea6"/></linearGradient></defs><g id="Capa_2" data-name="Capa 2"><g id="propuestas"><rect class="cls-1" x="68.35" y="163.33" width="943.94" height="111.47"/><text class="cls-2" transform="translate(249.95 293.74) scale(0.8 1)">HE<tspan class="cls-3" x="267.83" y="0">L</tspan><tspan x="378.73" y="0">ADOS</tspan></text><image width="1441" height="1101" xlink:href="../../../../../Desktop/Producto%20Farmatodo/img/fondo.jpg"/><rect class="cls-1" x="1051.99" y="29.83" width="334.58" height="378.8"/><rect class="cls-4" x="1378.31" y="441.65" width="45.86" height="106.39"/><rect class="cls-1" x="84.14" y="180.25" width="933.12" height="94.55"/><path class="cls-5" d="M276.55,202.83a1.68,1.68,0,0,1,1.29.54,1.78,1.78,0,0,1,.51,1.26v8.87a1.88,1.88,0,0,1-.51,1.34,1.68,1.68,0,0,1-1.29.54h-8.88a1.73,1.73,0,0,1-1.26-.54,1.82,1.82,0,0,1-.54-1.34v-8.87a1.85,1.85,0,0,1,1.8-1.8Zm-.29,15.94a1.7,1.7,0,0,1,1.3.54,1.81,1.81,0,0,1,.5,1.26v31a1.73,1.73,0,0,1-1.8,1.8H268a1.73,1.73,0,0,1-1.8-1.8v-31a1.81,1.81,0,0,1,.5-1.26,1.7,1.7,0,0,1,1.3-.54Z"/><path class="cls-5" d="M289.17,240.19a1.79,1.79,0,0,1-1.3-.5,1.75,1.75,0,0,1-.5-1.3V191.5a1.73,1.73,0,0,1,.5-1.29,1.76,1.76,0,0,1,1.3-.51h33.68a1.76,1.76,0,0,1,1.3.51,1.73,1.73,0,0,1,.51,1.29v6.78a1.75,1.75,0,0,1-1.81,1.81h-23v9.74h21.43a1.68,1.68,0,0,1,1.29.54,1.86,1.86,0,0,1,.51,1.33V218a1.78,1.78,0,0,1-.51,1.26,1.68,1.68,0,0,1-1.29.54H299.84v10h23.59a1.76,1.76,0,0,1,1.3.51,1.79,1.79,0,0,1,.5,1.3v6.78a1.71,1.71,0,0,1-1.8,1.8Z"/><path class="cls-5" d="M334.46,240.19a1.73,1.73,0,0,1-1.8-1.8V190.78a1.73,1.73,0,0,1,1.8-1.8H343a1.73,1.73,0,0,1,1.8,1.8v47.61a1.73,1.73,0,0,1-1.8,1.8Z"/><path class="cls-5" d="M384.09,240.91a26.71,26.71,0,0,1-8-1,18.45,18.45,0,0,1-5.34-2.56,11.69,11.69,0,0,1-3.06-3.14,6.26,6.26,0,0,1-1.09-2.78,1.55,1.55,0,0,1,.51-1.33,1.76,1.76,0,0,1,1.23-.54h8.22a.8.8,0,0,1,.36.07,3.19,3.19,0,0,1,.43.29,11.43,11.43,0,0,1,1.88,1.26,10.39,10.39,0,0,0,2.16,1.33,6.82,6.82,0,0,0,3,.58,6.69,6.69,0,0,0,3.39-.79,2.58,2.58,0,0,0,1.37-2.38,2.83,2.83,0,0,0-.65-1.91,6.42,6.42,0,0,0-2.63-1.48,40.65,40.65,0,0,0-5.95-1.45,29,29,0,0,1-6.57-2.27,11,11,0,0,1-4.33-3.68,9.69,9.69,0,0,1-1.51-5.51,9.53,9.53,0,0,1,1.87-5.56,13.51,13.51,0,0,1,5.49-4.36,20.76,20.76,0,0,1,8.87-1.7,24,24,0,0,1,7.25,1,18.69,18.69,0,0,1,5.19,2.49,12.73,12.73,0,0,1,3.21,3.1,5.79,5.79,0,0,1,1.15,2.88,1.53,1.53,0,0,1-.43,1.26,1.56,1.56,0,0,1-1.15.55h-7.5a1.66,1.66,0,0,1-.58-.11,3,3,0,0,1-.51-.26,9,9,0,0,1-1.73-1.15,10.48,10.48,0,0,0-2-1.3,6.48,6.48,0,0,0-2.88-.57,4.71,4.71,0,0,0-3,.86,2.74,2.74,0,0,0-1.08,2.24,2.77,2.77,0,0,0,.61,1.73,5.39,5.39,0,0,0,2.52,1.44,51.52,51.52,0,0,0,6,1.44,22.66,22.66,0,0,1,7.93,2.56,10.78,10.78,0,0,1,4.18,4.11,10.52,10.52,0,0,1,1.23,4.95,9.79,9.79,0,0,1-2.06,6.13,13.09,13.09,0,0,1-6.09,4.14A28.58,28.58,0,0,1,384.09,240.91Z"/><path class="cls-5" d="M419.79,240.91a15.77,15.77,0,0,1-7-1.48,12.52,12.52,0,0,1-4.87-4,9.57,9.57,0,0,1-1.8-5.7,9.45,9.45,0,0,1,4.18-8.11,25.66,25.66,0,0,1,11.11-4.08l9-1.37v-1a6.27,6.27,0,0,0-1.08-4c-.73-.92-2.05-1.37-4-1.37a6.06,6.06,0,0,0-3.28.79,5.53,5.53,0,0,0-2,2.16,2.05,2.05,0,0,1-1.8.94h-8.08a1.57,1.57,0,0,1-1.22-.47,1.38,1.38,0,0,1-.37-1.12,6.21,6.21,0,0,1,1-3,12.43,12.43,0,0,1,3-3.35,16.48,16.48,0,0,1,5.19-2.74,23.62,23.62,0,0,1,7.65-1.09,25.76,25.76,0,0,1,8,1.09,14.05,14.05,0,0,1,5.37,3,12.46,12.46,0,0,1,3.07,4.58,16.22,16.22,0,0,1,1,5.81v21.93a1.68,1.68,0,0,1-.55,1.3,1.81,1.81,0,0,1-1.26.5h-8.36a1.73,1.73,0,0,1-1.81-1.8v-2.53a10.41,10.41,0,0,1-2.52,2.53,13.19,13.19,0,0,1-3.72,1.84A16.34,16.34,0,0,1,419.79,240.91Zm3.39-8.22a7.94,7.94,0,0,0,3.79-.9,6.33,6.33,0,0,0,2.67-2.81,10.55,10.55,0,0,0,1-4.8v-1l-6.13,1.08a11.37,11.37,0,0,0-4.94,1.77A3.46,3.46,0,0,0,418,228.8a3.18,3.18,0,0,0,.72,2.09,4.72,4.72,0,0,0,1.88,1.33A6.83,6.83,0,0,0,423.18,232.69Z"/><path class="cls-5" d="M474,240.91a14.74,14.74,0,0,1-6.74-1.37,13.68,13.68,0,0,1-4.44-3.46v2.31a1.7,1.7,0,0,1-.54,1.3,1.81,1.81,0,0,1-1.26.5H452.9a1.79,1.79,0,0,1-1.3-.5,1.75,1.75,0,0,1-.5-1.3V190.78a1.75,1.75,0,0,1,.5-1.3,1.79,1.79,0,0,1,1.3-.5h8.8a1.71,1.71,0,0,1,1.8,1.8v15.44a13.45,13.45,0,0,1,4.37-3.07A14.88,14.88,0,0,1,474,202a16.18,16.18,0,0,1,6.39,1.19,13,13,0,0,1,4.72,3.43,16,16,0,0,1,3,5.34,24,24,0,0,1,1.23,7c0,.92.07,1.75.07,2.49s0,1.6-.07,2.56a23.83,23.83,0,0,1-1.27,7.18,16,16,0,0,1-3.06,5.34,12.46,12.46,0,0,1-4.69,3.31A16.63,16.63,0,0,1,474,240.91Zm-3.89-9.66a6.35,6.35,0,0,0,3.82-1,5.66,5.66,0,0,0,2-2.74,14.15,14.15,0,0,0,.76-3.83,33.34,33.34,0,0,0,0-4.47,14.07,14.07,0,0,0-.76-3.82,5.61,5.61,0,0,0-2-2.74,6.35,6.35,0,0,0-3.82-1,6.44,6.44,0,0,0-3.68,1,6.08,6.08,0,0,0-2.16,2.53,8.55,8.55,0,0,0-.8,3.35c-.05.91-.07,1.8-.07,2.67s0,1.78.07,2.74a11.09,11.09,0,0,0,.72,3.61,6,6,0,0,0,2.1,2.7A6.33,6.33,0,0,0,470.14,231.25Z"/><path class="cls-5" d="M514.35,240.91a24,24,0,0,1-10.2-1.94,14.35,14.35,0,0,1-6.35-5.59,18.57,18.57,0,0,1-2.49-8.7c-.05-1-.07-2.05-.07-3.28s0-2.29.07-3.21a17.77,17.77,0,0,1,2.6-8.73,15.11,15.11,0,0,1,6.45-5.55,26.77,26.77,0,0,1,20.06,0,15.11,15.11,0,0,1,6.45,5.55,17.88,17.88,0,0,1,2.6,8.73c0,.92.07,2,.07,3.21s0,2.32-.07,3.28a18.69,18.69,0,0,1-2.49,8.7,14.35,14.35,0,0,1-6.35,5.59A24.24,24.24,0,0,1,514.35,240.91Zm0-8.8a5.58,5.58,0,0,0,4.73-1.94,10.64,10.64,0,0,0,1.69-5.85c.05-.72.07-1.68.07-2.88s0-2.17-.07-2.89a10.65,10.65,0,0,0-1.69-5.8,6.57,6.57,0,0,0-9.42,0,10.1,10.1,0,0,0-1.65,5.8c-.05.72-.08,1.69-.08,2.89s0,2.16.08,2.88a10.11,10.11,0,0,0,1.65,5.85A5.6,5.6,0,0,0,514.35,232.11Z"/><path class="cls-5" d="M542.41,240.19a1.79,1.79,0,0,1-1.3-.5,1.75,1.75,0,0,1-.5-1.3v-33.9a1.77,1.77,0,0,1,.5-1.26,1.68,1.68,0,0,1,1.3-.55h8.29a1.66,1.66,0,0,1,1.3.55,1.78,1.78,0,0,1,.51,1.26v2.88a13.55,13.55,0,0,1,4.65-3.46,14.54,14.54,0,0,1,6.1-1.23h3.17a1.78,1.78,0,0,1,1.26.51,1.7,1.7,0,0,1,.54,1.3v7.43a1.85,1.85,0,0,1-1.8,1.8h-7a5.64,5.64,0,0,0-6.2,6.2v18.47a1.7,1.7,0,0,1-.54,1.3,1.92,1.92,0,0,1-1.34.5Z"/><path class="cls-5" d="M613.67,253.9a1.72,1.72,0,0,1-1.29-.51,1.76,1.76,0,0,1-.51-1.3v-16a11,11,0,0,1-4.33,3.57,14.36,14.36,0,0,1-6.2,1.26,16,16,0,0,1-6.35-1.19,13.3,13.3,0,0,1-4.76-3.35,15.22,15.22,0,0,1-3-5.27,23.67,23.67,0,0,1-1.22-7c-.05-1-.08-1.85-.08-2.67s0-1.71.08-2.67a25.83,25.83,0,0,1,1.29-7.14,15.64,15.64,0,0,1,3-5.27,12.71,12.71,0,0,1,4.73-3.28,16.86,16.86,0,0,1,6.31-1.12,14.22,14.22,0,0,1,6.78,1.48,13.22,13.22,0,0,1,4.4,3.72v-2.67a1.7,1.7,0,0,1,.54-1.3,1.78,1.78,0,0,1,1.26-.51h8.15a1.75,1.75,0,0,1,1.81,1.81v47.6a1.75,1.75,0,0,1-1.81,1.81Zm-8.44-22.65a6.44,6.44,0,0,0,3.68-1,6.14,6.14,0,0,0,2.17-2.52,8.71,8.71,0,0,0,.79-3.35,26.66,26.66,0,0,0,.14-2.75,24.34,24.34,0,0,0-.14-2.66,11.09,11.09,0,0,0-.72-3.61,6,6,0,0,0-2.09-2.71,7.58,7.58,0,0,0-7.61,0,5.56,5.56,0,0,0-2,2.74,14.46,14.46,0,0,0-.76,3.82,33.34,33.34,0,0,0,0,4.47,14.54,14.54,0,0,0,.76,3.83,5.61,5.61,0,0,0,2,2.74A6.39,6.39,0,0,0,605.23,231.25Z"/><path class="cls-5" d="M646.56,240.91a14.24,14.24,0,0,1-7.32-1.87,12.71,12.71,0,0,1-5-5.52,20,20,0,0,1-1.8-8.91V204.49a1.79,1.79,0,0,1,.5-1.3,1.76,1.76,0,0,1,1.3-.51h9a1.73,1.73,0,0,1,1.29.51,1.76,1.76,0,0,1,.51,1.3v19.69q0,7.06,6.35,7.07a6.27,6.27,0,0,0,4.72-1.84,7.25,7.25,0,0,0,1.77-5.23V204.49a1.79,1.79,0,0,1,.5-1.3,1.76,1.76,0,0,1,1.3-.51h9a1.76,1.76,0,0,1,1.3.51,1.79,1.79,0,0,1,.5,1.3v33.9a1.71,1.71,0,0,1-1.8,1.8h-8.37a1.81,1.81,0,0,1-1.26-.5,1.7,1.7,0,0,1-.54-1.3v-2.74a11.88,11.88,0,0,1-4.87,3.93A17.35,17.35,0,0,1,646.56,240.91Z"/><path class="cls-5" d="M696.33,240.91q-8.51,0-13.56-4.61t-5.26-13.71v-2.52a20.82,20.82,0,0,1,2.56-9.78,15.52,15.52,0,0,1,6.49-6.2,21,21,0,0,1,9.7-2.13,19.87,19.87,0,0,1,10.5,2.53,16,16,0,0,1,6.23,6.85,22.37,22.37,0,0,1,2.1,9.88V223a1.69,1.69,0,0,1-.54,1.3,1.82,1.82,0,0,1-1.27.51H690.2v.5a12.07,12.07,0,0,0,.72,3.82,5.9,5.9,0,0,0,2,2.74,5.41,5.41,0,0,0,3.32,1,5.62,5.62,0,0,0,2.42-.46,6.46,6.46,0,0,0,1.62-1.09,11.61,11.61,0,0,0,1-1,3.66,3.66,0,0,1,1.05-.9,3.22,3.22,0,0,1,1.26-.18h8.94a1.79,1.79,0,0,1,1.19.39,1.23,1.23,0,0,1,.4,1.12,6.39,6.39,0,0,1-1.23,3,15.09,15.09,0,0,1-3.35,3.42,18.29,18.29,0,0,1-5.52,2.78A25,25,0,0,1,696.33,240.91Zm-6.13-23.29h12.19v-.15a11.1,11.1,0,0,0-.68-4,5.63,5.63,0,0,0-2.1-2.67,5.91,5.91,0,0,0-3.35-.93,5.59,5.59,0,0,0-3.28.93,6,6,0,0,0-2.06,2.67,10.48,10.48,0,0,0-.72,4Z"/><path class="cls-5" d="M755,240.19a19.62,19.62,0,0,1-8-1.48,10.8,10.8,0,0,1-5.15-4.61A16.11,16.11,0,0,1,740,226V212.13h-5.62a1.87,1.87,0,0,1-1.34-.5,1.7,1.7,0,0,1-.54-1.3v-5.84a1.7,1.7,0,0,1,.54-1.3,1.88,1.88,0,0,1,1.34-.51H740v-11.9a1.7,1.7,0,0,1,.54-1.3,1.82,1.82,0,0,1,1.27-.5h8.36a1.79,1.79,0,0,1,1.3.5,1.76,1.76,0,0,1,.51,1.3v11.9h9a1.75,1.75,0,0,1,1.81,1.81v5.84a1.73,1.73,0,0,1-1.81,1.8h-9V225a7.12,7.12,0,0,0,.93,3.9,3.51,3.51,0,0,0,3.18,1.44h5.55a1.79,1.79,0,0,1,1.3.5,1.75,1.75,0,0,1,.5,1.3v6.28a1.75,1.75,0,0,1-.5,1.3,1.79,1.79,0,0,1-1.3.5Z"/><path class="cls-5" d="M783.25,240.91a14.24,14.24,0,0,1-7.32-1.87,12.73,12.73,0,0,1-5-5.52,20,20,0,0,1-1.8-8.91V204.49a1.76,1.76,0,0,1,.51-1.3,1.72,1.72,0,0,1,1.29-.51h9a1.76,1.76,0,0,1,1.3.51,1.79,1.79,0,0,1,.5,1.3v19.69q0,7.06,6.35,7.07a6.25,6.25,0,0,0,4.72-1.84,7.25,7.25,0,0,0,1.77-5.23V204.49a1.76,1.76,0,0,1,.51-1.3,1.73,1.73,0,0,1,1.29-.51h9a1.73,1.73,0,0,1,1.8,1.81v33.9a1.75,1.75,0,0,1-.5,1.3,1.79,1.79,0,0,1-1.3.5H797a1.81,1.81,0,0,1-1.26-.5,1.7,1.7,0,0,1-.54-1.3v-2.74a11.82,11.82,0,0,1-4.87,3.93A17.3,17.3,0,0,1,783.25,240.91Zm.79-43.64a1,1,0,0,1-1.15-1.15,1.28,1.28,0,0,1,.36-.94l6.34-7.71a4.46,4.46,0,0,1,1.23-1.12,3.28,3.28,0,0,1,1.44-.26h9.45c.92,0,1.37.49,1.37,1.45a1.18,1.18,0,0,1-.36.86l-9.52,7.86a4.48,4.48,0,0,1-1.15.76,4.07,4.07,0,0,1-1.59.25Z"/><path class="cls-5" d="M832.87,253.9a1.76,1.76,0,0,1-1.3-.51,1.79,1.79,0,0,1-.5-1.3v-47.6a1.79,1.79,0,0,1,.5-1.3,1.76,1.76,0,0,1,1.3-.51H841a1.78,1.78,0,0,1,1.26.51,1.68,1.68,0,0,1,.55,1.3v2.67a13.12,13.12,0,0,1,4.4-3.72A14.17,14.17,0,0,1,854,202a16.8,16.8,0,0,1,6.34,1.12,12.72,12.72,0,0,1,4.69,3.28,15.88,15.88,0,0,1,3.07,5.27,23.82,23.82,0,0,1,1.26,7.14c0,1,.07,1.85.07,2.67s0,1.71-.07,2.67a24,24,0,0,1-1.23,7,15.22,15.22,0,0,1-3,5.27,13.32,13.32,0,0,1-4.72,3.35,16,16,0,0,1-6.38,1.19,14.13,14.13,0,0,1-6.17-1.26,11.69,11.69,0,0,1-4.37-3.57v16a1.73,1.73,0,0,1-1.8,1.81Zm17.24-22.65a6.35,6.35,0,0,0,3.82-1,5.68,5.68,0,0,0,2-2.74,14.15,14.15,0,0,0,.75-3.83,33.34,33.34,0,0,0,0-4.47,14.07,14.07,0,0,0-.75-3.82,5.63,5.63,0,0,0-2-2.74,7.63,7.63,0,0,0-7.64,0,6,6,0,0,0-2.09,2.71,10.84,10.84,0,0,0-.73,3.61c0,.91-.07,1.8-.07,2.66s0,1.78.07,2.75a8.72,8.72,0,0,0,.8,3.35,6.12,6.12,0,0,0,2.16,2.52A6.44,6.44,0,0,0,850.11,231.25Z"/><path class="cls-5" d="M878.38,240.19a1.73,1.73,0,0,1-1.8-1.8v-33.9a1.78,1.78,0,0,1,.51-1.26,1.66,1.66,0,0,1,1.29-.55h8.3a1.68,1.68,0,0,1,1.3.55,1.81,1.81,0,0,1,.5,1.26v2.88a13.49,13.49,0,0,1,4.66-3.46,14.53,14.53,0,0,1,6.09-1.23h3.17a1.8,1.8,0,0,1,1.27.51,1.7,1.7,0,0,1,.54,1.3v7.43a1.73,1.73,0,0,1-.54,1.26,1.75,1.75,0,0,1-1.27.54h-7a5.65,5.65,0,0,0-6.21,6.2v18.47a1.7,1.7,0,0,1-.54,1.3,1.89,1.89,0,0,1-1.33.5Z"/><path class="cls-5" d="M926.28,240.91q-8.52,0-13.56-4.61t-5.27-13.71v-2.52a21.06,21.06,0,0,1,2.56-9.78,15.6,15.6,0,0,1,6.5-6.2,20.92,20.92,0,0,1,9.7-2.13,19.8,19.8,0,0,1,10.49,2.53,15.94,15.94,0,0,1,6.24,6.85,22.51,22.51,0,0,1,2.09,9.88V223a1.69,1.69,0,0,1-.54,1.3,1.78,1.78,0,0,1-1.26.51H920.15v.5a12.07,12.07,0,0,0,.72,3.82,5.76,5.76,0,0,0,2,2.74,5.39,5.39,0,0,0,3.32,1,5.57,5.57,0,0,0,2.41-.46,6.71,6.71,0,0,0,1.63-1.09,13.21,13.21,0,0,0,1-1,3.8,3.8,0,0,1,1-.9,3.29,3.29,0,0,1,1.26-.18h9a1.81,1.81,0,0,1,1.19.39,1.22,1.22,0,0,1,.39,1.12,6.25,6.25,0,0,1-1.22,3,14.94,14.94,0,0,1-3.36,3.42,18.11,18.11,0,0,1-5.51,2.78A25,25,0,0,1,926.28,240.91Zm-6.13-23.29h12.19v-.15a10.89,10.89,0,0,0-.69-4,5.61,5.61,0,0,0-2.09-2.67,5.93,5.93,0,0,0-3.35-.93,5.62,5.62,0,0,0-3.29.93,6,6,0,0,0-2,2.67,10.48,10.48,0,0,0-.72,4Z"/><path class="cls-5" d="M957.58,240.19a1.81,1.81,0,0,1-1.26-.5,1.7,1.7,0,0,1-.54-1.3V212.13H950.3a1.73,1.73,0,0,1-1.3-.5,1.76,1.76,0,0,1-.51-1.3v-5.84a1.75,1.75,0,0,1,1.81-1.81h5.48v-2.3a14.53,14.53,0,0,1,1.91-7.9,10.73,10.73,0,0,1,5.45-4.33,23.85,23.85,0,0,1,8.44-1.33H990a1.81,1.81,0,0,1,1.26.5,1.7,1.7,0,0,1,.54,1.3v5.84a1.7,1.7,0,0,1-.54,1.3,1.77,1.77,0,0,1-1.26.5H972.15a4.28,4.28,0,0,0-3.42,1.16,5,5,0,0,0-1,3.32v1.94H990a1.78,1.78,0,0,1,1.26.51,1.7,1.7,0,0,1,.54,1.3v33.9a1.7,1.7,0,0,1-.54,1.3,1.81,1.81,0,0,1-1.26.5h-8.37a1.71,1.71,0,0,1-1.8-1.8V212.13H967.75v26.26a1.71,1.71,0,0,1-1.8,1.8Z"/><path class="cls-5" d="M1017.59,240.91q-8.51,0-13.56-4.61t-5.26-13.71v-2.52a20.82,20.82,0,0,1,2.56-9.78,15.52,15.52,0,0,1,6.49-6.2,21,21,0,0,1,9.7-2.13,19.87,19.87,0,0,1,10.5,2.53,16.06,16.06,0,0,1,6.24,6.85,22.51,22.51,0,0,1,2.09,9.88V223a1.69,1.69,0,0,1-.54,1.3,1.8,1.8,0,0,1-1.27.51h-23.08v.5a12.07,12.07,0,0,0,.72,3.82,5.9,5.9,0,0,0,2,2.74,5.41,5.41,0,0,0,3.32,1,5.62,5.62,0,0,0,2.42-.46,6.46,6.46,0,0,0,1.62-1.09,11.61,11.61,0,0,0,1-1,3.66,3.66,0,0,1,1-.9,3.22,3.22,0,0,1,1.26-.18h8.94a1.79,1.79,0,0,1,1.19.39,1.23,1.23,0,0,1,.4,1.12,6.39,6.39,0,0,1-1.23,3,14.88,14.88,0,0,1-3.35,3.42,18.29,18.29,0,0,1-5.52,2.78A24.94,24.94,0,0,1,1017.59,240.91Zm-6.13-23.29h12.19v-.15a11.1,11.1,0,0,0-.68-4,5.67,5.67,0,0,0-2.09-2.67,6,6,0,0,0-3.36-.93,5.59,5.59,0,0,0-3.28.93,6,6,0,0,0-2.06,2.67,10.48,10.48,0,0,0-.72,4Z"/><path class="cls-5" d="M1044.93,240.19a1.79,1.79,0,0,1-1.3-.5,1.75,1.75,0,0,1-.5-1.3v-33.9a1.77,1.77,0,0,1,.5-1.26,1.68,1.68,0,0,1,1.3-.55h8.29a1.66,1.66,0,0,1,1.3.55,1.78,1.78,0,0,1,.51,1.26v2.88a13.55,13.55,0,0,1,4.65-3.46,14.54,14.54,0,0,1,6.1-1.23H1069a1.78,1.78,0,0,1,1.26.51,1.7,1.7,0,0,1,.54,1.3v7.43a1.85,1.85,0,0,1-1.8,1.8h-7a5.64,5.64,0,0,0-6.2,6.2v18.47a1.7,1.7,0,0,1-.54,1.3,1.92,1.92,0,0,1-1.34.5Z"/><path class="cls-5" d="M1092.82,240.91q-8.5,0-13.56-4.61T1074,222.59v-2.52a20.94,20.94,0,0,1,2.56-9.78,15.52,15.52,0,0,1,6.49-6.2,21,21,0,0,1,9.7-2.13,19.87,19.87,0,0,1,10.5,2.53,16.06,16.06,0,0,1,6.24,6.85,22.51,22.51,0,0,1,2.09,9.88V223a1.69,1.69,0,0,1-.54,1.3,1.8,1.8,0,0,1-1.27.51h-23.08v.5a12.07,12.07,0,0,0,.72,3.82,5.9,5.9,0,0,0,2,2.74,5.41,5.41,0,0,0,3.32,1,5.62,5.62,0,0,0,2.42-.46,6.46,6.46,0,0,0,1.62-1.09,11.61,11.61,0,0,0,1-1,3.66,3.66,0,0,1,1-.9,3.22,3.22,0,0,1,1.26-.18h8.94a1.79,1.79,0,0,1,1.19.39,1.2,1.2,0,0,1,.4,1.12,6.39,6.39,0,0,1-1.23,3,14.88,14.88,0,0,1-3.35,3.42,18.29,18.29,0,0,1-5.52,2.78A24.94,24.94,0,0,1,1092.82,240.91Zm-6.13-23.29h12.19v-.15a11.1,11.1,0,0,0-.68-4,5.67,5.67,0,0,0-2.09-2.67,6,6,0,0,0-3.36-.93,5.59,5.59,0,0,0-3.28.93,6,6,0,0,0-2.06,2.67,10.48,10.48,0,0,0-.72,4Z"/><path class="cls-5" d="M1133.79,240.91a26.76,26.76,0,0,1-8-1,18.58,18.58,0,0,1-5.34-2.56,11.69,11.69,0,0,1-3.06-3.14,6.23,6.23,0,0,1-1.08-2.78,1.54,1.54,0,0,1,.5-1.33,1.8,1.8,0,0,1,1.23-.54h8.22a.74.74,0,0,1,.36.07,2.66,2.66,0,0,1,.43.29,11.43,11.43,0,0,1,1.88,1.26,10.66,10.66,0,0,0,2.16,1.33,6.86,6.86,0,0,0,3,.58,6.64,6.64,0,0,0,3.39-.79,2.58,2.58,0,0,0,1.37-2.38,2.78,2.78,0,0,0-.65-1.91,6.42,6.42,0,0,0-2.63-1.48,40.32,40.32,0,0,0-6-1.45,28.93,28.93,0,0,1-6.56-2.27,10.88,10.88,0,0,1-4.33-3.68,9.69,9.69,0,0,1-1.52-5.51,9.54,9.54,0,0,1,1.88-5.56,13.54,13.54,0,0,1,5.48-4.36,20.76,20.76,0,0,1,8.87-1.7,24,24,0,0,1,7.25,1,18.56,18.56,0,0,1,5.19,2.49,12.73,12.73,0,0,1,3.21,3.1,5.82,5.82,0,0,1,1.16,2.88,1.56,1.56,0,0,1-.43,1.26,1.58,1.58,0,0,1-1.16.55h-7.5a1.7,1.7,0,0,1-.58-.11,2.6,2.6,0,0,1-.5-.26,8.38,8.38,0,0,1-1.73-1.15,10.8,10.8,0,0,0-2-1.3,6.5,6.5,0,0,0-2.89-.57,4.71,4.71,0,0,0-3,.86,2.74,2.74,0,0,0-1.08,2.24,2.77,2.77,0,0,0,.61,1.73,5.38,5.38,0,0,0,2.53,1.44,51.23,51.23,0,0,0,6,1.44,22.59,22.59,0,0,1,7.93,2.56,10.82,10.82,0,0,1,4.19,4.11,10.63,10.63,0,0,1,1.22,4.95,9.79,9.79,0,0,1-2,6.13,13.12,13.12,0,0,1-6.1,4.14A28.54,28.54,0,0,1,1133.79,240.91Z"/><path class="cls-5" d="M1160.05,240.19a1.73,1.73,0,0,1-1.81-1.8v-8.87a1.88,1.88,0,0,1,.51-1.34,1.69,1.69,0,0,1,1.3-.54h8.87a1.73,1.73,0,0,1,1.26.54,1.82,1.82,0,0,1,.54,1.34v8.87a1.7,1.7,0,0,1-.54,1.3,1.81,1.81,0,0,1-1.26.5Zm.29-15.94a1.69,1.69,0,0,1-1.3-.54,1.78,1.78,0,0,1-.51-1.26V191.5a1.74,1.74,0,0,1,1.81-1.8h8.29a1.78,1.78,0,0,1,1.26.51,1.68,1.68,0,0,1,.54,1.29v30.95a1.85,1.85,0,0,1-1.8,1.8Z"/></g></g></svg>