<svg xmlns="http://www.w3.org/2000/svg" viewBox="0 0 30.41 20.18"><defs><style>.cls-1{fill:#478bc9;}</style></defs><g id="Capa_2" data-name="Capa 2"><g id="propuestas"><path class="cls-1" d="M.15,17.67a.55.55,0,0,0,.38.16H9a10.24,10.24,0,0,0-.17,1.82A.48.48,0,0,0,9,20a.52.52,0,0,0,.37.16H21a.53.53,0,0,0,.53-.51,11.6,11.6,0,0,0-.13-1.84h8.51a.53.53,0,0,0,.52-.51c0-.18.12-4.45-2.56-6.9a.52.52,0,0,0-.68,0s-3.14,2.36-6,0a.52.52,0,0,0-.67,0,7.78,7.78,0,0,0-1.66,2.27.54.54,0,0,0-.53.07c-.12.1-3.15,2.35-6,0a.54.54,0,0,0-.49-.09,6.82,6.82,0,0,0-1.6-2.23.5.5,0,0,0-.67,0s-3.15,2.36-6,0a.53.53,0,0,0-.68,0A9.52,9.52,0,0,0,0,17.29.54.54,0,0,0,.15,17.67Zm20.7-6.17a6,6,0,0,0,6.58,0,8.83,8.83,0,0,1,1.92,5.29H21.17a8.53,8.53,0,0,0-1.57-3.3A8.11,8.11,0,0,1,20.85,11.5ZM12,13.85a6,6,0,0,0,6.58,0,8.83,8.83,0,0,1,1.92,5.29H9.88A8.82,8.82,0,0,1,12,13.85ZM3.15,11.5a6,6,0,0,0,6.57,0,6.35,6.35,0,0,1,1.21,1.95,9.51,9.51,0,0,0-1.71,3.34H1.07A8.88,8.88,0,0,1,3.15,11.5Z"/><path class="cls-1" d="M6.35,10h0A5,5,0,0,0,9.88,8.5a3.52,3.52,0,0,0,.36-.41,5,5,0,0,0,4.92,4.23h0A5,5,0,0,0,20.09,8a5,5,0,0,0,4,2h0A4.91,4.91,0,0,0,27.58,8.5a5,5,0,1,0-7-7,5,5,0,0,0-1.42,2.87,5,5,0,0,0-7.48-.52c-.13.13-.25.27-.37.41A5,5,0,1,0,6.35,10ZM21.28,2.21a3.88,3.88,0,0,1,2.78-1.16,3.93,3.93,0,1,1,0,7.86h0a3.92,3.92,0,0,1-2.78-6.7Zm-8.9,2.35A3.88,3.88,0,0,1,15.16,3.4a3.93,3.93,0,1,1,0,7.86h0a3.92,3.92,0,0,1-2.78-6.7ZM3.57,2.21A3.9,3.9,0,0,1,6.35,1.05a3.93,3.93,0,1,1,0,7.86h0a3.92,3.92,0,0,1-2.78-6.7Z"/></g></g></svg>