<svg xmlns="http://www.w3.org/2000/svg" viewBox="0 0 24.8 24.8"><defs><style>.cls-1{fill:#fff;}</style></defs><g id="Capa_2" data-name="Capa 2"><g id="propuestas"><path class="cls-1" d="M19,4.43a1.46,1.46,0,1,0,1.45,1.45A1.46,1.46,0,0,0,19,4.43Z"/><path class="cls-1" d="M12.5,6.29a6.11,6.11,0,1,0,6.11,6.11A6.11,6.11,0,0,0,12.5,6.29Zm0,10a3.91,3.91,0,1,1,3.92-3.91A3.92,3.92,0,0,1,12.5,16.31Z"/><path class="cls-1" d="M17.35,24.8H7.45A7.46,7.46,0,0,1,0,17.35V7.45A7.46,7.46,0,0,1,7.45,0h9.9A7.46,7.46,0,0,1,24.8,7.45v9.9A7.46,7.46,0,0,1,17.35,24.8ZM7.45,2.33A5.13,5.13,0,0,0,2.33,7.45v9.9a5.12,5.12,0,0,0,5.12,5.12h9.9a5.12,5.12,0,0,0,5.12-5.12V7.45a5.13,5.13,0,0,0-5.12-5.12Z"/></g></g></svg>