<svg xmlns="http://www.w3.org/2000/svg" viewBox="0 0 36.33 36.33"><defs><style>.cls-1{fill:#478bc9;stroke:#478bc9;stroke-miterlimit:10;stroke-width:1.18px;}</style></defs><g id="Capa_2" data-name="Capa 2"><g id="propuestas"><path class="cls-1" d="M22.31,25.86,31.46,35A2.5,2.5,0,1,0,35,31.46l-9.14-9.15a13.12,13.12,0,0,0,1.35-2.47,13.9,13.9,0,0,0,0-10.79,13.65,13.65,0,0,0-3-4.4,14,14,0,0,0-4.41-3A13.86,13.86,0,0,0,1.68,19.84a14,14,0,0,0,3,4.41,13.84,13.84,0,0,0,9.8,4.05,13.63,13.63,0,0,0,5.39-1.09A13.12,13.12,0,0,0,22.31,25.86ZM25,14.45A10.52,10.52,0,0,1,7,21.89,10.52,10.52,0,0,1,21.89,7,10.45,10.45,0,0,1,25,14.45Z"/></g></g></svg>