<svg xmlns="http://www.w3.org/2000/svg" viewBox="0 0 22.89 22.89"><defs><style>.cls-1{fill:#fff;}</style></defs><g id="Capa_2" data-name="Capa 2"><g id="propuestas"><path class="cls-1" d="M14.15,16.46l6,6a1.65,1.65,0,0,0,2.31,0,1.65,1.65,0,0,0,0-2.31l-6-6a8.65,8.65,0,0,0,.88-1.61A8.78,8.78,0,0,0,18.05,9a8.86,8.86,0,0,0-.71-3.52A9,9,0,0,0,5.51.71,9,9,0,0,0,0,9a9,9,0,0,0,5.51,8.31A8.86,8.86,0,0,0,9,18.05a8.78,8.78,0,0,0,3.51-.71A8.65,8.65,0,0,0,14.15,16.46ZM15.88,9A6.86,6.86,0,0,1,9,15.88,6.86,6.86,0,1,1,9,2.17,6.86,6.86,0,0,1,15.88,9Z"/></g></g></svg>