<svg xmlns="http://www.w3.org/2000/svg" viewBox="0 0 12.94 21.53"><defs><style>.cls-1{fill:#478bc9;}</style></defs><g id="Capa_2" data-name="Capa 2"><g id="propuestas"><path class="cls-1" d="M12.76,8a6.6,6.6,0,0,0,.18-1.53A6.47,6.47,0,0,0,0,6.47,6.6,6.6,0,0,0,.18,8a9.77,9.77,0,0,0,.71,2.52c.64,1.33,3.31,5.74,4.54,7.75-1.66.21-2.43.92-2.43,1.6s1.08,1.66,3.47,1.66,3.47-.86,3.47-1.66-.77-1.39-2.43-1.6c1.23-2,3.9-6.42,4.54-7.75A9.77,9.77,0,0,0,12.76,8ZM8.94,19.87c-.07.19-.9.66-2.47.66S4.05,20,4,19.87s.72-.57,2-.65l0,.05a.52.52,0,0,0,.43.24.49.49,0,0,0,.42-.24l0-.05C8.2,19.3,8.88,19.7,8.94,19.87ZM1.79,10.09a8.94,8.94,0,0,1-.62-2.27.06.06,0,0,1,0,0A5.28,5.28,0,0,1,1,6.47a5.47,5.47,0,0,1,10.94,0,5.28,5.28,0,0,1-.16,1.31.06.06,0,0,1,0,0,8.94,8.94,0,0,1-.62,2.27c-.64,1.34-3.57,6.16-4.68,8C5.36,16.25,2.43,11.43,1.79,10.09Z"/><path class="cls-1" d="M6.47,2.81A3.48,3.48,0,1,0,9.94,6.28,3.48,3.48,0,0,0,6.47,2.81ZM4,6.28A2.47,2.47,0,1,1,6.47,8.76,2.48,2.48,0,0,1,4,6.28Z"/></g></g></svg>