<svg xmlns="http://www.w3.org/2000/svg" viewBox="0 0 21.51 24.73"><defs><style>.cls-1{fill:#d6d2d2;}</style></defs><g id="Capa_2" data-name="Capa 2"><g id="propuestas"><path class="cls-1" d="M1.3,5.52,3.44,22.94a2,2,0,0,0,2,1.79H16.05a2.05,2.05,0,0,0,2-1.79L20.21,5.52ZM7.16,22h0a.61.61,0,0,1-.6-.56L5.5,9a.61.61,0,0,1,.56-.65.6.6,0,0,1,.65.55l1,12.44A.6.6,0,0,1,7.16,22Zm4.2-.6a.61.61,0,0,1-1.21,0V8.91a.61.61,0,0,1,1.21,0ZM16,9,15,21.39a.61.61,0,0,1-.6.56h-.05a.6.6,0,0,1-.55-.65l1-12.44a.59.59,0,0,1,.65-.55A.61.61,0,0,1,16,9Z"/><path class="cls-1" d="M21,2.69H15.52A.6.6,0,0,1,15,2.3l-.43-1.24A1.58,1.58,0,0,0,13.05,0H8.46A1.58,1.58,0,0,0,7,1.06L6.54,2.3A.58.58,0,0,1,6,2.69H.5a.5.5,0,0,0-.5.5v1a.5.5,0,0,0,.5.5H21a.5.5,0,0,0,.5-.5v-1A.5.5,0,0,0,21,2.69ZM8.3,1.54a.26.26,0,0,1,.24-.17H13a.26.26,0,0,1,.24.17l.4,1.15H7.9Z"/></g></g></svg>